<?xml version="1.0" encoding="UTF-8" standalone="no"?>
<!-- Created with Inkscape (http://www.inkscape.org/) -->

<svg
   xmlns:dc="http://purl.org/dc/elements/1.1/"
   xmlns:cc="http://creativecommons.org/ns#"
   xmlns:rdf="http://www.w3.org/1999/02/22-rdf-syntax-ns#"
   xmlns:svg="http://www.w3.org/2000/svg"
   xmlns="http://www.w3.org/2000/svg"
   xmlns:xlink="http://www.w3.org/1999/xlink"
   xmlns:sodipodi="http://sodipodi.sourceforge.net/DTD/sodipodi-0.dtd"
   xmlns:inkscape="http://www.inkscape.org/namespaces/inkscape"
   width="1052.3622"
   height="744.09448"
   id="svg2"
   version="1.1"
   inkscape:version="0.91 r13725"
   sodipodi:docname="lom.svg"
   inkscape:export-filename="/home/piotrek/Obrazy/Others/ITPlanet/leagueofminecraft/lom.png"
   inkscape:export-xdpi="90"
   inkscape:export-ydpi="90">
  <sodipodi:namedview
     id="base"
     pagecolor="#ffffff"
     bordercolor="#666666"
     borderopacity="1.0"
     inkscape:pageopacity="0.0"
     inkscape:pageshadow="2"
     inkscape:zoom="1"
     inkscape:cx="419.36945"
     inkscape:cy="336.16466"
     inkscape:document-units="px"
     inkscape:current-layer="layer1"
     showgrid="false"
     inkscape:object-nodes="true"
     showguides="false"
     inkscape:guide-bbox="true"
     inkscape:window-width="1920"
     inkscape:window-height="1018"
     inkscape:window-x="-8"
     inkscape:window-y="-8"
     inkscape:window-maximized="1"
     inkscape:snap-smooth-nodes="false"
     inkscape:object-paths="false"
     inkscape:snap-intersection-paths="false"
     inkscape:snap-bbox="false"
     inkscape:bbox-nodes="false"
     units="mm">
    <sodipodi:guide
       orientation="1,0"
       position="526.1811,570"
       id="guide3786" />
  </sodipodi:namedview>
  <defs
     id="defs4">
    <linearGradient
       id="linearGradient7733">
      <stop
         style="stop-color:#292933;stop-opacity:1;"
         offset="0"
         id="stop7735" />
      <stop
         style="stop-color:#121214;stop-opacity:1;"
         offset="1"
         id="stop7737" />
    </linearGradient>
    <linearGradient
       id="linearGradient6414">
      <stop
         style="stop-color:#000000;stop-opacity:0.34782609;"
         offset="0"
         id="stop6416" />
      <stop
         style="stop-color:#000000;stop-opacity:0;"
         offset="1"
         id="stop6418" />
    </linearGradient>
    <linearGradient
       inkscape:collect="always"
       xlink:href="#linearGradient6414"
       id="linearGradient6420"
       x1="531.15625"
       y1="331.10632"
       x2="531.15625"
       y2="471.72821"
       gradientUnits="userSpaceOnUse" />
    <clipPath
       clipPathUnits="userSpaceOnUse"
       id="clipPath7043">
      <g
         id="g7045"
         transform="translate(-3.3045169e-6,-308.26769)">
        <g
           id="g7047">
          <g
             id="g7049"
             style="fill:#4a421c;fill-opacity:1;fill-rule:nonzero;stroke:none">
            <path
               id="path7051"
               d="m 329.625,545.95519 -37.46875,33.78125 141.42136,141.42136 37.46875,-33.78125 z"
               inkscape:connector-curvature="0" />
            <path
               id="path7053"
               d="m 292.15625,579.73644 11.5625,10.125 141.42136,141.42136 -11.5625,-10.125 z"
               inkscape:connector-curvature="0" />
            <path
               id="path7055"
               d="m 303.71875,589.86144 c 0.32684,57.73669 2.85982,59.47848 -11.3125,60.90625 l 141.42136,141.42136 c 14.17232,-1.42777 11.63934,-3.16956 11.3125,-60.90625 z"
               inkscape:connector-curvature="0" />
            <path
               id="path7057"
               d="m 292.40625,650.76769 16.4375,22.75 141.42136,141.42136 -16.4375,-22.75 z"
               inkscape:connector-curvature="0" />
            <path
               id="path7059"
               d="m 308.84375,673.51769 c 34.79874,0 57.64247,2.62636 60.25,-8.6875 l 141.42136,141.42136 c -2.60753,11.31386 -25.45126,8.6875 -60.25,8.6875 z"
               inkscape:connector-curvature="0" />
            <path
               id="path7061"
               d="m 369.09375,664.83019 0,-30.25 141.42136,141.42136 0,30.25 z"
               inkscape:connector-curvature="0" />
            <path
               id="path7063"
               d="m 369.09375,634.58019 c -7.28357,10.9414 -23.26246,11.54106 -39.46875,11.84375 L 471.04636,787.8453 c 16.20629,-0.30269 32.18518,-0.90235 39.46875,-11.84375 z"
               inkscape:connector-curvature="0" />
            <path
               id="path7065"
               d="m 329.625,646.42394 0,-100.46875 141.42136,141.42136 0,100.46875 z"
               inkscape:connector-curvature="0" />
            <path
               id="path7067"
               d="M 416.28125,549.08019 366.1875,584.79894 507.60886,726.2203 557.70261,690.50155 z"
               inkscape:connector-curvature="0" />
            <path
               id="path7069"
               d="m 366.1875,584.79894 15.90625,5.65625 141.42136,141.42136 -15.90625,-5.65625 z"
               inkscape:connector-curvature="0" />
            <path
               id="path7071"
               d="m 382.09375,590.45519 c -0.29451,61.71821 4.71674,66.65347 -5.34375,83.0625 l 141.42136,141.42136 c 10.06049,-16.40903 5.04924,-21.34429 5.34375,-83.0625 z"
               inkscape:connector-curvature="0" />
            <path
               id="path7073"
               d="m 376.75,673.51769 64.34375,0 141.42136,141.42136 -64.34375,0 z"
               inkscape:connector-curvature="0" />
            <path
               id="path7075"
               d="m 441.09375,673.51769 0,-31.15625 141.42136,141.42136 0,31.15625 z"
               inkscape:connector-curvature="0" />
            <path
               id="path7077"
               d="m 441.09375,642.36144 c -6.17895,6.91348 -14.9602,11.99329 -32.90625,10.6875 L 549.60886,794.4703 c 17.94605,1.30579 26.7273,-3.77402 32.90625,-10.6875 z"
               inkscape:connector-curvature="0" />
            <path
               id="path7079"
               d="m 408.1875,653.04894 0,-26.59375 141.42136,141.42136 0,26.59375 z"
               inkscape:connector-curvature="0" />
            <path
               id="path7081"
               d="m 408.1875,626.45519 17.28125,0 141.42136,141.42136 -17.28125,0 z"
               inkscape:connector-curvature="0" />
            <path
               id="path7083"
               d="m 425.46875,626.45519 5.21875,4.65625 141.42136,141.42136 -5.21875,-4.65625 z"
               inkscape:connector-curvature="0" />
            <path
               id="path7085"
               d="m 430.6875,631.11144 0,-22.15625 141.42136,141.42136 0,22.15625 z"
               inkscape:connector-curvature="0" />
            <path
               id="path7087"
               d="m 430.6875,608.95519 -22.5,0 141.42136,141.42136 22.5,0 z"
               inkscape:connector-curvature="0" />
            <path
               id="path7089"
               d="m 408.1875,608.95519 0,-23.53125 141.42136,141.42136 0,23.53125 z"
               inkscape:connector-curvature="0" />
            <path
               id="path7091"
               d="m 408.1875,585.42394 c 2.67131,-2.71116 5.4558,-5.09498 8.375,-7.0625 L 557.98386,719.7828 c -2.9192,1.96752 -5.70369,4.35134 -8.375,7.0625 z"
               inkscape:connector-curvature="0" />
            <path
               id="path7093"
               d="m 416.5625,578.36144 13,12.75 141.42136,141.42136 -13,-12.75 z"
               inkscape:connector-curvature="0" />
            <path
               id="path7095"
               d="M 429.5625,591.11144 441,583.39269 l 141.42136,141.42136 -11.4375,7.71875 z"
               inkscape:connector-curvature="0" />
            <path
               id="path7097"
               d="m 441,583.39269 -24.71875,-34.3125 141.42136,141.42136 24.71875,34.3125 z"
               inkscape:connector-curvature="0" />
            <path
               id="path7099"
               d="M 746.96875,549.08019 696.875,584.79894 838.29636,726.2203 888.39011,690.50155 z"
               inkscape:connector-curvature="0" />
            <path
               id="path7101"
               d="m 696.875,584.79894 15.90625,5.65625 141.42136,141.42136 -15.90625,-5.65625 z"
               inkscape:connector-curvature="0" />
            <path
               id="path7103"
               d="m 712.78125,590.45519 c -0.29451,61.71821 4.71674,66.65347 -5.34375,83.0625 l 141.42136,141.42136 c 10.06049,-16.40903 5.04924,-21.34429 5.34375,-83.0625 z"
               inkscape:connector-curvature="0" />
            <path
               id="path7105"
               d="m 707.4375,673.51769 64.34375,0 141.42136,141.42136 -64.34375,0 z"
               inkscape:connector-curvature="0" />
            <path
               id="path7107"
               d="m 771.78125,673.51769 0,-31.15625 141.42136,141.42136 0,31.15625 z"
               inkscape:connector-curvature="0" />
            <path
               id="path7109"
               d="m 771.78125,642.36144 c -6.17895,6.91348 -14.9602,11.99329 -32.90625,10.6875 L 880.29636,794.4703 c 17.94605,1.30579 26.7273,-3.77402 32.90625,-10.6875 z"
               inkscape:connector-curvature="0" />
            <path
               id="path7111"
               d="m 738.875,653.04894 0,-26.59375 141.42136,141.42136 0,26.59375 z"
               inkscape:connector-curvature="0" />
            <path
               id="path7113"
               d="m 738.875,626.45519 17.28125,0 141.42136,141.42136 -17.28125,0 z"
               inkscape:connector-curvature="0" />
            <path
               id="path7115"
               d="m 756.15625,626.45519 5.21875,4.65625 141.42136,141.42136 -5.21875,-4.65625 z"
               inkscape:connector-curvature="0" />
            <path
               id="path7117"
               d="m 761.375,631.11144 0,-22.15625 141.42136,141.42136 0,22.15625 z"
               inkscape:connector-curvature="0" />
            <path
               id="path7119"
               d="m 761.375,608.95519 -22.5,0 141.42136,141.42136 22.5,0 z"
               inkscape:connector-curvature="0" />
            <path
               id="path7121"
               d="m 738.875,608.95519 0,-23.53125 141.42136,141.42136 0,23.53125 z"
               inkscape:connector-curvature="0" />
            <path
               id="path7123"
               d="m 738.875,585.42394 c 2.67131,-2.71116 5.4558,-5.09498 8.375,-7.0625 L 888.67136,719.7828 c -2.9192,1.96752 -5.70369,4.35134 -8.375,7.0625 z"
               inkscape:connector-curvature="0" />
            <path
               id="path7125"
               d="m 747.25,578.36144 13,12.75 141.42136,141.42136 -13,-12.75 z"
               inkscape:connector-curvature="0" />
            <path
               id="path7127"
               d="m 760.25,591.11144 11.4375,-7.71875 141.42136,141.42136 -11.4375,7.71875 z"
               inkscape:connector-curvature="0" />
            <path
               id="path7129"
               d="m 771.6875,583.39269 -24.71875,-34.3125 141.42136,141.42136 24.71875,34.3125 z"
               inkscape:connector-curvature="0" />
            <path
               id="path7131"
               d="m 568.78125,549.45519 -32.34375,34.125 141.42136,141.42136 32.34375,-34.125 z"
               inkscape:connector-curvature="0" />
            <path
               id="path7133"
               d="m 536.4375,583.58019 0,66.03125 141.42136,141.42136 0,-66.03125 z"
               inkscape:connector-curvature="0" />
            <path
               id="path7135"
               d="m 536.4375,649.61144 34.5,35.78125 141.42136,141.42136 -34.5,-35.78125 z"
               inkscape:connector-curvature="0" />
            <path
               id="path7137"
               d="m 570.9375,685.39269 31.03125,-31.125 141.42136,141.42136 -31.03125,31.125 z"
               inkscape:connector-curvature="0" />
            <path
               id="path7139"
               d="m 601.96875,654.26769 22.8125,30.5 141.42136,141.42136 -22.8125,-30.5 z"
               inkscape:connector-curvature="0" />
            <path
               id="path7141"
               d="M 624.78125,684.76769 606.0625,615.11144 747.48386,756.5328 766.20261,826.18905 z"
               inkscape:connector-curvature="0" />
            <path
               id="path7143"
               d="m 606.0625,615.11144 -33.375,0 141.42136,141.42136 33.375,0 z"
               inkscape:connector-curvature="0" />
            <path
               id="path7145"
               d="m 572.6875,615.11144 0,15.4375 141.42136,141.42136 0,-15.4375 z"
               inkscape:connector-curvature="0" />
            <path
               id="path7147"
               d="m 572.6875,630.54894 14.21875,0 141.42136,141.42136 -14.21875,0 z"
               inkscape:connector-curvature="0" />
            <path
               id="path7149"
               d="m 586.90625,630.54894 c 1.17231,1.6513 2.14822,3.40462 2.0625,5.75 L 730.39011,777.7203 c 0.0857,-2.34538 -0.89019,-4.0987 -2.0625,-5.75 z"
               inkscape:connector-curvature="0" />
            <path
               id="path7151"
               d="m 588.96875,636.29894 -15.625,12.375 141.42136,141.42136 15.625,-12.375 z"
               inkscape:connector-curvature="0" />
            <path
               id="path7153"
               d="m 573.34375,648.67394 -6.5,-4.9375 141.42136,141.42136 6.5,4.9375 z"
               inkscape:connector-curvature="0" />
            <path
               id="path7155"
               d="m 566.84375,643.73644 0,-50.3125 141.42136,141.42136 0,50.3125 z"
               inkscape:connector-curvature="0" />
            <path
               id="path7157"
               d="m 566.84375,593.42394 6.40625,-8.625 141.42136,141.42136 -6.40625,8.625 z"
               inkscape:connector-curvature="0" />
            <path
               id="path7159"
               d="m 573.25,584.79894 10.5,14.5 141.42136,141.42136 -10.5,-14.5 z"
               inkscape:connector-curvature="0" />
            <path
               id="path7161"
               d="m 583.75,599.29894 19.90625,-13.78125 141.42136,141.42136 -19.90625,13.78125 z"
               inkscape:connector-curvature="0" />
            <path
               id="path7163"
               d="m 603.65625,585.51769 -34.875,-36.0625 141.42136,141.42136 34.875,36.0625 z"
               inkscape:connector-curvature="0" />
            <path
               id="path7165"
               d="m 500.53125,550.54894 -43.625,25.125 141.42136,141.42136 43.625,-25.125 z"
               inkscape:connector-curvature="0" />
            <path
               id="path7167"
               d="m 456.90625,575.67394 6.96875,8.75 141.42136,141.42136 -6.96875,-8.75 z"
               inkscape:connector-curvature="0" />
            <path
               id="path7169"
               d="m 463.875,584.42394 c -11.9099,65.07434 -11.52143,79.87852 -21.4375,89.09375 l 141.42136,141.42136 c 9.91607,-9.21523 9.5276,-24.01941 21.4375,-89.09375 z"
               inkscape:connector-curvature="0" />
            <path
               id="path7171"
               d="m 442.4375,673.51769 40.3125,0 141.42136,141.42136 -40.3125,0 z"
               inkscape:connector-curvature="0" />
            <path
               id="path7173"
               d="m 482.75,673.51769 -11.46875,-11.5 141.42136,141.42136 11.46875,11.5 z"
               inkscape:connector-curvature="0" />
            <path
               id="path7175"
               d="m 471.28125,662.01769 c 0.35314,-17.72221 17.66339,-23.91469 24.3125,-26.46875 L 637.01511,776.9703 c -6.64911,2.55406 -23.95936,8.74654 -24.3125,26.46875 z"
               inkscape:connector-curvature="0" />
            <path
               id="path7177"
               d="m 495.59375,635.54894 c 1.43979,8.17522 6.811,26.3291 -3.15625,37.96875 l 141.42136,141.42136 c 9.96725,-11.63965 4.59604,-29.79353 3.15625,-37.96875 z"
               inkscape:connector-curvature="0" />
            <path
               id="path7179"
               d="m 492.4375,673.51769 39.0625,0 141.42136,141.42136 -39.0625,0 z"
               inkscape:connector-curvature="0" />
            <path
               id="path7181"
               d="m 531.5,673.51769 c -6.99782,-7.25483 -10.62595,-29.78156 -15.4375,-45.78125 L 657.48386,769.1578 c 4.81155,15.99969 8.43968,38.52642 15.4375,45.78125 z"
               inkscape:connector-curvature="0" />
            <path
               id="path7183"
               d="m 516.0625,627.73644 c 4.91488,-1.61592 9.83839,-3.22124 14.875,-4.59375 l 141.42136,141.42136 c -5.03661,1.37251 -9.96012,2.97783 -14.875,4.59375 z"
               inkscape:connector-curvature="0" />
            <path
               id="path7185"
               d="m 530.9375,623.14269 -3.65625,-15 141.42136,141.42136 3.65625,15 z"
               inkscape:connector-curvature="0" />
            <path
               id="path7187"
               d="m 527.28125,608.14269 c -4.76339,0.59431 -10.03872,2.32455 -15.375,3.875 l 141.42136,141.42136 c 5.33628,-1.55045 10.61161,-3.28069 15.375,-3.875 z"
               inkscape:connector-curvature="0" />
            <path
               id="path7189"
               d="m 511.90625,612.01769 c -6.08468,-22.08409 -16.83847,-47.07687 -11.375,-61.46875 L 641.95261,691.9703 c -5.46347,14.39188 5.29032,39.38466 11.375,61.46875 z"
               inkscape:connector-curvature="0" />
            <path
               id="path7191"
               d="m 695.21875,557.51769 -32.34375,17.75 141.42136,141.42136 32.34375,-17.75 z"
               inkscape:connector-curvature="0" />
            <path
               id="path7193"
               d="m 662.875,575.26769 c 3.53194,2.81132 6.45177,5.03805 11.71875,9.46875 L 816.01511,726.1578 c -5.26698,-4.4307 -8.18681,-6.65743 -11.71875,-9.46875 z"
               inkscape:connector-curvature="0" />
            <path
               id="path7195"
               d="m 674.59375,584.73644 0,48.9375 141.42136,141.42136 0,-48.9375 z"
               inkscape:connector-curvature="0" />
            <path
               id="path7197"
               d="M 674.59375,633.67394 663.9375,649.45519 805.35886,790.87655 816.01511,775.0953 z"
               inkscape:connector-curvature="0" />
            <path
               id="path7199"
               d="m 663.9375,649.45519 -10.65625,-16.0625 141.42136,141.42136 10.65625,16.0625 z"
               inkscape:connector-curvature="0" />
            <path
               id="path7201"
               d="m 653.28125,633.39269 0,-75.34375 141.42136,141.42136 0,75.34375 z"
               inkscape:connector-curvature="0" />
            <path
               id="path7203"
               d="m 653.28125,558.04894 -35,17.625 141.42136,141.42136 35,-17.625 z"
               inkscape:connector-curvature="0" />
            <path
               id="path7205"
               d="m 618.28125,575.67394 c 2.18761,1.5956 4.42462,3.11513 6.39202,5.08253 l 141.42135,141.42136 c -1.96739,-1.9674 -4.2044,-3.48693 -6.39201,-5.08253 z"
               inkscape:connector-curvature="0" />
            <path
               id="path7207"
               d="m 624.67327,580.75647 c 1.20271,1.20272 2.30467,2.57281 3.23298,4.22997 L 769.32761,726.4078 c -0.92831,-1.65717 -2.03027,-3.02726 -3.23299,-4.22997 z"
               inkscape:connector-curvature="0" />
            <path
               id="path7209"
               d="m 627.90625,584.98644 0,59.1875 141.42136,141.42136 0,-59.1875 z"
               inkscape:connector-curvature="0" />
            <path
               id="path7211"
               d="m 627.90625,644.17394 c 5.7296,9.62179 11.45127,17.58974 17.16335,23.30182 l 141.42135,141.42135 c -5.71207,-5.71207 -11.43375,-13.68003 -17.16334,-23.30181 z"
               inkscape:connector-curvature="0" />
            <path
               id="path7213"
               d="m 645.0696,667.47576 c 16.81381,16.8138 33.54444,14.0815 50.14915,-23.55182 L 836.64011,785.3453 c -16.60472,37.63332 -33.33535,40.36562 -50.14916,23.55181 z"
               inkscape:connector-curvature="0" />
            <path
               id="path7215"
               d="m 695.21875,643.92394 0,-86.40625 141.42136,141.42136 0,86.40625 z"
               inkscape:connector-curvature="0" />
            <path
               id="path7217"
               d="m 483.625,594.86144 c 2.85174,8.07315 6.7673,15.89709 8.375,24.28125 l 141.42136,141.42136 c -1.6077,-8.38416 -5.52326,-16.2081 -8.375,-24.28125 z"
               inkscape:connector-curvature="0" />
            <path
               id="path7219"
               d="m 492,619.14269 c -7.37475,3.24211 -10.47585,5.14105 -14.5625,8.21875 L 618.85886,768.7828 c 4.08665,-3.0777 7.18775,-4.97664 14.5625,-8.21875 z"
               inkscape:connector-curvature="0" />
            <path
               id="path7221"
               d="m 477.4375,627.36144 6.1875,-32.5 141.42136,141.42136 -6.1875,32.5 z"
               inkscape:connector-curvature="0" />
          </g>
          <path
             inkscape:connector-curvature="0"
             id="path7223"
             d="m 329.625,545.95519 -37.46875,33.78125 11.5625,10.125 c 0.32684,57.73669 2.85982,59.47848 -11.3125,60.90625 l 16.4375,22.75 c 34.79874,0 57.64247,2.62636 60.25,-8.6875 l 0,-30.25 c -7.28357,10.9414 -23.26246,11.54106 -39.46875,11.84375 l 0,-100.46875 z m 86.65625,3.125 -50.09375,35.71875 15.90625,5.65625 c -0.29451,61.71821 4.71674,66.65347 -5.34375,83.0625 l 64.34375,0 0,-31.15625 c -6.17895,6.91348 -14.9602,11.99329 -32.90625,10.6875 l 0,-26.59375 17.28125,0 5.21875,4.65625 0,-22.15625 -22.5,0 0,-23.53125 c 2.67131,-2.71116 5.4558,-5.09498 8.375,-7.0625 l 13,12.75 11.4375,-7.71875 -24.71875,-34.3125 z m 330.6875,0 -50.09375,35.71875 15.90625,5.65625 c -0.29451,61.71821 4.71674,66.65347 -5.34375,83.0625 l 64.34375,0 0,-31.15625 c -6.17895,6.91348 -14.9602,11.99329 -32.90625,10.6875 l 0,-26.59375 17.28125,0 5.21875,4.65625 0,-22.15625 -22.5,0 0,-23.53125 c 2.67131,-2.71116 5.4558,-5.09498 8.375,-7.0625 l 13,12.75 11.4375,-7.71875 -24.71875,-34.3125 z m -178.1875,0.375 -32.34375,34.125 0,66.03125 34.5,35.78125 31.03125,-31.125 22.8125,30.5 -18.71875,-69.65625 -33.375,0 0,15.4375 14.21875,0 c 1.17231,1.6513 2.14822,3.40462 2.0625,5.75 l -15.625,12.375 -6.5,-4.9375 0,-50.3125 6.40625,-8.625 10.5,14.5 19.90625,-13.78125 -34.875,-36.0625 z m -68.25,1.09375 -43.625,25.125 6.96875,8.75 c -11.9099,65.07434 -11.52143,79.87852 -21.4375,89.09375 l 40.3125,0 -11.46875,-11.5 c 0.35314,-17.72221 17.66339,-23.91469 24.3125,-26.46875 1.43979,8.17522 6.811,26.3291 -3.15625,37.96875 l 39.0625,0 c -6.99782,-7.25483 -10.62595,-29.78156 -15.4375,-45.78125 4.91488,-1.61592 9.83839,-3.22124 14.875,-4.59375 l -3.65625,-15 c -4.76339,0.59431 -10.03872,2.32455 -15.375,3.875 -6.08468,-22.08409 -16.83847,-47.07687 -11.375,-61.46875 z m 194.6875,6.96875 -32.34375,17.75 c 3.53194,2.81132 6.45177,5.03805 11.71875,9.46875 l 0,48.9375 -10.65625,15.78125 -10.65625,-16.0625 0,-75.34375 -35,17.625 c 3.52495,2.57103 7.17817,4.94457 9.625,9.3125 l 0,59.1875 c 22.59499,37.94405 45.06675,50.16831 67.3125,-0.25 l 0,-86.40625 z M 483.625,594.86144 c 2.85174,8.07315 6.7673,15.89709 8.375,24.28125 -7.37475,3.24211 -10.47585,5.14105 -14.5625,8.21875 l 6.1875,-32.5 z"
             style="fill:#4a421c;fill-opacity:1;fill-rule:nonzero;stroke:none" />
        </g>
        <path
           id="path7225"
           d="m 817.66935,604.57594 -15.20322,9.82647 141.42136,141.42136 15.20322,-9.82647 z"
           inkscape:connector-curvature="0"
           style="fill:#584e21;fill-opacity:1;fill-rule:nonzero;stroke:none" />
        <path
           id="path7227"
           d="m 802.46613,614.40241 -9.80796,-8.84382 141.42136,141.42136 9.80796,8.84382 z"
           inkscape:connector-curvature="0"
           style="fill:#584e21;fill-opacity:1;fill-rule:nonzero;stroke:none" />
        <path
           id="path7229"
           d="m 792.65817,605.55859 -10.04891,8.15783 141.42136,141.42136 10.04891,-8.15783 z"
           inkscape:connector-curvature="0"
           style="fill:#584e21;fill-opacity:1;fill-rule:nonzero;stroke:none" />
        <path
           id="path7231"
           d="m 782.60926,613.71642 0,22.54526 141.42136,141.42136 0,-22.54526 z"
           inkscape:connector-curvature="0"
           style="fill:#584e21;fill-opacity:1;fill-rule:nonzero;stroke:none" />
        <path
           id="path7233"
           d="m 782.60926,636.26168 10.08605,10.08605 141.42136,141.42136 -10.08605,-10.08605 z"
           inkscape:connector-curvature="0"
           style="fill:#584e21;fill-opacity:1;fill-rule:nonzero;stroke:none" />
        <path
           id="path7235"
           d="m 792.69531,646.34773 9.77082,-9.77086 141.42136,141.42136 -9.77082,9.77086 z"
           inkscape:connector-curvature="0"
           style="fill:#584e21;fill-opacity:1;fill-rule:nonzero;stroke:none" />
        <path
           id="path7237"
           d="m 802.46613,636.57687 0,-20.9137 141.42136,141.42136 0,20.9137 z"
           inkscape:connector-curvature="0"
           style="fill:#584e21;fill-opacity:1;fill-rule:nonzero;stroke:none" />
        <path
           id="path7239"
           d="m 802.46613,615.66317 c 1.34464,0.32889 2.3768,0.45867 4.26432,1.14951 l 141.42136,141.42136 c -1.88752,-0.69084 -2.91968,-0.82062 -4.26432,-1.14951 z"
           inkscape:connector-curvature="0"
           style="fill:#584e21;fill-opacity:1;fill-rule:nonzero;stroke:none" />
        <path
           id="path7241"
           d="m 806.73045,616.81268 c 0.22011,17.18477 1.07155,20.68932 -1.50176,25.15948 l 141.42136,141.42136 c 2.57331,-4.47016 1.72187,-7.97471 1.50176,-25.15948 z"
           inkscape:connector-curvature="0"
           style="fill:#584e21;fill-opacity:1;fill-rule:nonzero;stroke:none" />
        <path
           id="path7243"
           d="m 805.22869,641.97216 12.88563,0 141.42136,141.42136 -12.88563,0 z"
           inkscape:connector-curvature="0"
           style="fill:#584e21;fill-opacity:1;fill-rule:nonzero;stroke:none" />
        <path
           id="path7245"
           d="m 818.11432,641.97216 c -0.23493,-0.20345 -0.45322,-0.40596 -0.65603,-0.60877 l 141.42136,141.42136 c 0.20281,0.20281 0.4211,0.40531 0.65603,0.60877 z"
           inkscape:connector-curvature="0"
           style="fill:#584e21;fill-opacity:1;fill-rule:nonzero;stroke:none" />
        <path
           id="path7247"
           d="m 817.45829,641.36339 c -3.00032,-3.00032 -2.61197,-6.06748 -2.5515,-13.25953 l 141.42136,141.42136 c -0.0605,7.19205 -0.44882,10.25921 2.5515,13.25953 z"
           inkscape:connector-curvature="0"
           style="fill:#584e21;fill-opacity:1;fill-rule:nonzero;stroke:none" />
        <path
           id="path7249"
           d="m 814.90679,628.10386 4.85767,0 141.42136,141.42136 -4.85767,0 z"
           inkscape:connector-curvature="0"
           style="fill:#584e21;fill-opacity:1;fill-rule:nonzero;stroke:none" />
        <path
           id="path7251"
           d="m 819.76446,628.10386 1.83549,1.83551 141.42136,141.42136 -1.83549,-1.83551 z"
           inkscape:connector-curvature="0"
           style="fill:#584e21;fill-opacity:1;fill-rule:nonzero;stroke:none" />
        <path
           id="path7253"
           d="m 821.59995,629.93937 0,-7.15664 141.42136,141.42136 0,7.15664 z"
           inkscape:connector-curvature="0"
           style="fill:#584e21;fill-opacity:1;fill-rule:nonzero;stroke:none" />
        <path
           id="path7255"
           d="m 821.59995,622.78273 -6.76733,0 141.42136,141.42136 6.76733,0 z"
           inkscape:connector-curvature="0"
           style="fill:#584e21;fill-opacity:1;fill-rule:nonzero;stroke:none" />
        <path
           id="path7257"
           d="m 814.83262,622.78273 0,-6.82292 141.42136,141.42136 0,6.82292 z"
           inkscape:connector-curvature="0"
           style="fill:#584e21;fill-opacity:1;fill-rule:nonzero;stroke:none" />
        <path
           id="path7259"
           d="m 814.83262,615.95981 c 0.56393,-0.81199 1.55811,-1.70378 2.61425,-2.61421 l 141.42136,141.42136 c -1.05614,0.91043 -2.05032,1.80222 -2.61425,2.61421 z"
           inkscape:connector-curvature="0"
           style="fill:#584e21;fill-opacity:1;fill-rule:nonzero;stroke:none" />
        <path
           id="path7261"
           d="m 817.44687,613.3456 3.81935,4.48681 141.42136,141.42136 -3.81935,-4.48681 z"
           inkscape:connector-curvature="0"
           style="fill:#584e21;fill-opacity:1;fill-rule:nonzero;stroke:none" />
        <path
           id="path7263"
           d="m 821.26622,617.83241 3.81934,-3.20751 141.42136,141.42136 -3.81934,3.20751 z"
           inkscape:connector-curvature="0"
           style="fill:#584e21;fill-opacity:1;fill-rule:nonzero;stroke:none" />
        <path
           id="path7265"
           d="m 825.08556,614.6249 -7.41621,-10.04896 141.42136,141.42136 7.41621,10.04896 z"
           inkscape:connector-curvature="0"
           style="fill:#584e21;fill-opacity:1;fill-rule:nonzero;stroke:none" />
        <path
           id="path7267"
           d="m 792.73232,614.95863 2.94798,1.70572 141.42136,141.42136 -2.94798,-1.70572 z"
           inkscape:connector-curvature="0"
           style="fill:#584e21;fill-opacity:1;fill-rule:nonzero;stroke:none" />
        <path
           id="path7269"
           d="m 795.6803,616.66435 0,16.61231 141.42136,141.42136 0,-16.61231 z"
           inkscape:connector-curvature="0"
           style="fill:#584e21;fill-opacity:1;fill-rule:nonzero;stroke:none" />
        <path
           id="path7271"
           d="m 795.6803,633.27666 -3.28164,1.89114 141.42136,141.42136 3.28164,-1.89114 z"
           inkscape:connector-curvature="0"
           style="fill:#584e21;fill-opacity:1;fill-rule:nonzero;stroke:none" />
        <path
           id="path7273"
           d="m 792.39866,635.1678 -3.22611,-1.77989 141.42136,141.42136 3.22611,1.77989 z"
           inkscape:connector-curvature="0"
           style="fill:#584e21;fill-opacity:1;fill-rule:nonzero;stroke:none" />
        <path
           id="path7275"
           d="m 789.17255,633.38791 0,-16.37129 141.42136,141.42136 0,16.37129 z"
           inkscape:connector-curvature="0"
           style="fill:#584e21;fill-opacity:1;fill-rule:nonzero;stroke:none" />
        <path
           id="path7277"
           d="m 789.17255,617.01662 3.55977,-2.05799 141.42136,141.42136 -3.55977,2.05799 z"
           inkscape:connector-curvature="0"
           style="fill:#584e21;fill-opacity:1;fill-rule:nonzero;stroke:none" />
        <path
           inkscape:connector-curvature="0"
           id="path7279"
           d="m 792.65625,605.54894 -10.0625,8.15625 0,22.5625 10.09375,10.09375 9.78125,-9.78125 0,-20.90625 c 1.34464,0.32889 2.36248,0.43416 4.25,1.125 0.22011,17.18477 1.07331,20.71734 -1.5,25.1875 l 12.90625,0 c -3.71035,-3.21328 -3.28331,-6.19679 -3.21875,-13.875 l 4.84375,0 1.84375,1.8125 0,-7.15625 -6.75,0 0,-6.8125 c 0.56393,-0.81199 1.53761,-1.71457 2.59375,-2.625 l 3.84375,4.5 3.21875,-2.71875 c -3.71476,-2.38561 -7.33286,-5.02627 -10.8125,-7.96875 l -11.21875,7.25 -9.8125,-8.84375 z m 0.0625,9.40625 2.96875,1.71875 0,16.59375 -3.28125,1.90625 -3.21875,-1.78125 0,-16.375 3.53125,-2.0625 z"
           style="fill:#584e21;fill-opacity:1;fill-rule:nonzero;stroke:none" />
      </g>
    </clipPath>
    <linearGradient
       inkscape:collect="always"
       xlink:href="#linearGradient6414"
       id="linearGradient7289"
       x1="292.40891"
       y1="502.25946"
       x2="292.40891"
       y2="641.17822"
       gradientUnits="userSpaceOnUse" />
    <clipPath
       clipPathUnits="userSpaceOnUse"
       id="clipPath7291">
      <g
         id="g7293"
         transform="translate(0,-308.26769)">
        <g
           id="g7295"
           style="fill:#4a421c;fill-opacity:1;fill-rule:nonzero;stroke:none">
          <path
             id="path7297"
             d="m 168.625,658.51769 c 1.12756,0.95298 2.10461,1.80289 2.95078,2.64906 l 141.42136,141.42136 c -0.84618,-0.84618 -1.82322,-1.69608 -2.95078,-2.64906 z"
             inkscape:connector-curvature="0" />
          <path
             id="path7299"
             d="m 171.57578,661.16675 c 6.60362,6.60362 5.23672,12.98011 5.23672,66.35094 l 141.42136,141.42136 c 0,-53.37083 1.3669,-59.74732 -5.23672,-66.35094 z"
             inkscape:connector-curvature="0" />
          <path
             id="path7301"
             d="m 176.8125,727.51769 c 0,71.95629 -0.32469,60.417 -12.09375,73.65625 L 306.14011,942.5953 c 11.76906,-13.23925 12.09375,-1.69996 12.09375,-73.65625 z"
             inkscape:connector-curvature="0" />
          <path
             id="path7303"
             d="m 164.71875,801.17394 47.625,0 141.42136,141.42136 -47.625,0 z"
             inkscape:connector-curvature="0" />
          <path
             id="path7305"
             d="m 212.34375,801.17394 c -0.48427,-0.25709 -0.93293,-0.59416 -1.34842,-1.00965 l 141.42135,141.42135 c 0.4155,0.41549 0.86416,0.75257 1.34843,1.00966 z"
             inkscape:connector-curvature="0" />
          <path
             id="path7307"
             d="m 210.99533,800.16429 c -7.21001,-7.21002 -4.43283,-38.03368 -4.43283,-84.2716 l 141.42136,141.42136 c 0,46.23792 -2.77719,77.06158 4.43282,84.27159 z"
             inkscape:connector-curvature="0" />
          <path
             id="path7309"
             d="m 206.5625,715.89269 22.59375,83.28125 141.42136,141.42136 -22.59375,-83.28125 z"
             inkscape:connector-curvature="0" />
          <path
             id="path7311"
             d="m 229.15625,799.17394 21.0625,-83.90625 141.42136,141.42136 -21.0625,83.90625 z"
             inkscape:connector-curvature="0" />
          <path
             id="path7313"
             d="m 250.21875,715.26769 c -1.73276,52.59127 5.95521,81.72634 -4.4375,85.90625 L 387.20261,942.5953 c 10.39271,-4.17991 2.70474,-33.31498 4.4375,-85.90625 z"
             inkscape:connector-curvature="0" />
          <path
             id="path7315"
             d="m 245.78125,801.17394 46.5625,0 141.42136,141.42136 -46.5625,0 z"
             inkscape:connector-curvature="0" />
          <path
             id="path7317"
             d="m 292.34375,801.17394 c -19.34209,-20.05071 -13.43469,-15.35076 -12.9375,-73.3125 L 420.82761,869.2828 c -0.49719,57.96174 -6.40459,53.26179 12.9375,73.3125 z"
             inkscape:connector-curvature="0" />
          <path
             id="path7319"
             d="m 279.40625,727.86144 c 0.49476,-57.68047 -3.1138,-60.31544 9.03125,-69.34375 l 141.42136,141.42136 c -12.14505,9.02831 -8.53649,11.66328 -9.03125,69.34375 z"
             inkscape:connector-curvature="0" />
          <path
             id="path7321"
             d="m 288.4375,658.51769 -56.90625,0 141.42136,141.42136 56.90625,0 z"
             inkscape:connector-curvature="0" />
          <path
             id="path7323"
             d="m 231.53125,658.51769 c 0.33725,0.22213 0.64581,0.47412 0.92711,0.75541 l 141.42135,141.42136 c -0.28129,-0.28129 -0.58985,-0.53328 -0.9271,-0.75541 z"
             inkscape:connector-curvature="0" />
          <path
             id="path7325"
             d="m 232.45836,659.2731 c 5.76605,5.76605 0.0744,23.84552 -4.86461,49.46334 L 369.01511,850.1578 c 4.93898,-25.61783 10.63065,-43.69729 4.8646,-49.46334 z"
             inkscape:connector-curvature="0" />
          <path
             id="path7327"
             d="m 227.59375,708.73644 c -4.54142,-25.49505 -11.42249,-43.36709 -2.96875,-50.21875 l 141.42136,141.42136 c -8.45374,6.85166 -1.57267,24.7237 2.96875,50.21875 z"
             inkscape:connector-curvature="0" />
          <path
             id="path7329"
             d="m 224.625,658.51769 -56,0 141.42136,141.42136 56,0 z"
             inkscape:connector-curvature="0" />
          <path
             id="path7331"
             d="m 802.84375,658.51769 0,42.5625 141.42136,141.42136 0,-42.5625 z"
             inkscape:connector-curvature="0" />
          <path
             id="path7333"
             d="m 802.84375,701.08019 c 6.45512,-10.08369 15.79037,-11.31813 25.125,-12.59375 L 969.39011,829.9078 c -9.33463,1.27562 -18.66988,2.51006 -25.125,12.59375 z"
             inkscape:connector-curvature="0" />
          <path
             id="path7335"
             d="m 827.96875,688.48644 c 0,113.94341 1.2079,94.75015 -14.15625,112.6875 L 955.23386,942.5953 c 15.36415,-17.93735 14.15625,1.25591 14.15625,-112.6875 z"
             inkscape:connector-curvature="0" />
          <path
             id="path7337"
             d="m 813.8125,801.17394 61.375,0 141.4214,141.42136 -61.37504,0 z"
             inkscape:connector-curvature="0" />
          <path
             id="path7339"
             d="m 875.1875,801.17394 c -17.79382,-19.02298 -16.375,-13.49263 -16.375,-112.59375 l 141.4214,141.42136 c 0,99.10112 -1.41886,93.57077 16.375,112.59375 z"
             inkscape:connector-curvature="0" />
          <path
             id="path7341"
             d="m 858.8125,688.58019 c 12.44546,0.8003 21.38222,5.94268 28.8125,12.96875 l 141.4214,141.42136 c -7.4303,-7.02607 -16.3671,-12.16845 -28.8125,-12.96875 z"
             inkscape:connector-curvature="0" />
          <path
             id="path7343"
             d="m 887.625,701.54894 0,-43.03125 141.4214,141.42136 0,43.03125 z"
             inkscape:connector-curvature="0" />
          <path
             id="path7345"
             d="m 887.625,658.51769 -84.78125,0 141.42136,141.42136 84.78129,0 z"
             inkscape:connector-curvature="0" />
          <path
             id="path7347"
             d="m 779.15625,674.61144 -52.8125,35.5625 141.42136,141.42136 52.8125,-35.5625 z"
             inkscape:connector-curvature="0" />
          <path
             id="path7349"
             d="m 726.34375,710.17394 c 2.29534,0.56144 10.61828,3.79767 17.0625,6.15625 l 141.42136,141.42136 c -6.44422,-2.35858 -14.76716,-5.59481 -17.0625,-6.15625 z"
             inkscape:connector-curvature="0" />
          <path
             id="path7351"
             d="m 743.40625,716.33019 c 0.91145,58.62992 5.89292,68.69609 -6.4375,84.84375 L 878.39011,942.5953 c 12.33042,-16.14766 7.34895,-26.21383 6.4375,-84.84375 z"
             inkscape:connector-curvature="0" />
          <path
             id="path7353"
             d="m 736.96875,801.17394 44,0 141.42136,141.42136 -44,0 z"
             inkscape:connector-curvature="0" />
          <path
             id="path7355"
             d="m 780.96875,801.17394 c -0.80151,-0.69414 -1.54627,-1.38503 -2.23819,-2.07694 l 141.42136,141.42136 c 0.69192,0.69191 1.43667,1.3828 2.23819,2.07694 z"
             inkscape:connector-curvature="0" />
          <path
             id="path7357"
             d="m 778.73056,799.097 c -10.24336,-10.24336 -8.90565,-20.71153 -8.69931,-45.26681 l 141.42136,141.42136 c -0.20635,24.55528 -1.54405,35.02344 8.69931,45.26681 z"
             inkscape:connector-curvature="0" />
          <path
             id="path7359"
             d="m 770.03125,753.83019 16.5625,0 141.42136,141.42136 -16.5625,0 z"
             inkscape:connector-curvature="0" />
          <path
             id="path7361"
             d="m 786.59375,753.83019 6.28125,6.28125 141.42136,141.42136 -6.28125,-6.28125 z"
             inkscape:connector-curvature="0" />
          <path
             id="path7363"
             d="m 792.875,760.11144 0,-24.4375 141.42136,141.42136 0,24.4375 z"
             inkscape:connector-curvature="0" />
          <path
             id="path7365"
             d="m 792.875,735.67394 -23.125,0 141.42136,141.42136 23.125,0 z"
             inkscape:connector-curvature="0" />
          <path
             id="path7367"
             d="m 769.75,735.67394 0,-23.3125 141.42136,141.42136 0,23.3125 z"
             inkscape:connector-curvature="0" />
          <path
             id="path7369"
             d="m 769.75,712.36144 c 1.92527,-2.77219 5.33184,-5.79799 8.9375,-8.90625 l 141.42136,141.42136 c -3.60566,3.10826 -7.01223,6.13406 -8.9375,8.90625 z"
             inkscape:connector-curvature="0" />
          <path
             id="path7371"
             d="m 778.6875,703.45519 13.40625,16.40625 141.42136,141.42136 -13.40625,-16.40625 z"
             inkscape:connector-curvature="0" />
          <path
             id="path7373"
             d="M 792.09375,719.86144 805.125,708.92394 946.54636,850.3453 933.51511,861.2828 z"
             inkscape:connector-curvature="0" />
          <path
             id="path7375"
             d="m 805.125,708.92394 -25.96875,-34.3125 141.42136,141.42136 25.96875,34.3125 z"
             inkscape:connector-curvature="0" />
          <path
             id="path7377"
             d="m 470.71875,676.76769 -50.0625,35.6875 141.42136,141.42136 50.0625,-35.6875 z"
             inkscape:connector-curvature="0" />
          <path
             id="path7379"
             d="m 420.65625,712.45519 15.90625,5.6875 141.42136,141.42136 -15.90625,-5.6875 z"
             inkscape:connector-curvature="0" />
          <path
             id="path7381"
             d="m 436.5625,718.14269 c -0.29451,61.71821 4.71674,66.62222 -5.34375,83.03125 L 572.64011,942.5953 c 10.06049,-16.40903 5.04924,-21.31304 5.34375,-83.03125 z"
             inkscape:connector-curvature="0" />
          <path
             id="path7383"
             d="m 431.21875,801.17394 64.34375,0 141.42136,141.42136 -64.34375,0 z"
             inkscape:connector-curvature="0" />
          <path
             id="path7385"
             d="m 495.5625,801.17394 0,-31.15625 141.42136,141.42136 0,31.15625 z"
             inkscape:connector-curvature="0" />
          <path
             id="path7387"
             d="m 495.5625,770.01769 c -6.17895,6.91348 -14.99145,11.99329 -32.9375,10.6875 l 141.42136,141.42136 c 17.94605,1.30579 26.75855,-3.77402 32.9375,-10.6875 z"
             inkscape:connector-curvature="0" />
          <path
             id="path7389"
             d="m 462.625,780.70519 0,-26.59375 141.42136,141.42136 0,26.59375 z"
             inkscape:connector-curvature="0" />
          <path
             id="path7391"
             d="m 462.625,754.11144 17.3125,0 141.42136,141.42136 -17.3125,0 z"
             inkscape:connector-curvature="0" />
          <path
             id="path7393"
             d="m 479.9375,754.11144 5.21875,4.65625 141.42136,141.42136 -5.21875,-4.65625 z"
             inkscape:connector-curvature="0" />
          <path
             id="path7395"
             d="m 485.15625,758.76769 0,-22.125 141.42136,141.42136 0,22.125 z"
             inkscape:connector-curvature="0" />
          <path
             id="path7397"
             d="m 485.15625,736.64269 -22.53125,0 141.42136,141.42136 22.53125,0 z"
             inkscape:connector-curvature="0" />
          <path
             id="path7399"
             d="m 462.625,736.64269 0,-23.53125 141.42136,141.42136 0,23.53125 z"
             inkscape:connector-curvature="0" />
          <path
             id="path7401"
             d="m 462.625,713.11144 c 2.67131,-2.71116 5.4558,-5.09498 8.375,-7.0625 L 612.42136,847.4703 c -2.9192,1.96752 -5.70369,4.35134 -8.375,7.0625 z"
             inkscape:connector-curvature="0" />
          <path
             id="path7403"
             d="m 471,706.04894 13.03125,12.75 141.42136,141.42136 -13.03125,-12.75 z"
             inkscape:connector-curvature="0" />
          <path
             id="path7405"
             d="m 484.03125,718.79894 11.4375,-7.71875 141.42136,141.42136 -11.4375,7.71875 z"
             inkscape:connector-curvature="0" />
          <path
             id="path7407"
             d="m 495.46875,711.08019 -24.75,-34.3125 141.42136,141.42136 24.75,34.3125 z"
             inkscape:connector-curvature="0" />
          <path
             id="path7409"
             d="M 527.40625,677.70519 499.875,706.98644 641.29636,848.4078 668.82761,819.12655 z"
             inkscape:connector-curvature="0" />
          <path
             id="path7411"
             d="m 499.875,706.98644 0,75.46875 141.42136,141.42136 0,-75.46875 z"
             inkscape:connector-curvature="0" />
          <path
             id="path7413"
             d="m 499.875,782.45519 29.09375,32.21875 141.42136,141.42136 -29.09375,-32.21875 z"
             inkscape:connector-curvature="0" />
          <path
             id="path7415"
             d="m 528.96875,814.67394 26.96875,-23.9375 141.42136,141.42136 -26.96875,23.9375 z"
             inkscape:connector-curvature="0" />
          <path
             id="path7417"
             d="m 555.9375,790.73644 -8.09375,-25.9375 141.42136,141.42136 8.09375,25.9375 z"
             inkscape:connector-curvature="0" />
          <path
             id="path7419"
             d="m 547.84375,764.79894 -16.28125,17.5625 141.42136,141.42136 16.28125,-17.5625 z"
             inkscape:connector-curvature="0" />
          <path
             id="path7421"
             d="m 531.5625,782.36144 -5.625,-7.25 141.42136,141.42136 5.625,7.25 z"
             inkscape:connector-curvature="0" />
          <path
             id="path7423"
             d="m 525.9375,775.11144 0,-58.65625 141.42136,141.42136 0,58.65625 z"
             inkscape:connector-curvature="0" />
          <path
             id="path7425"
             d="m 525.9375,716.45519 c 1.83181,-2.96458 3.44348,-6.32862 5.96875,-7.90625 L 673.32761,849.9703 c -2.52527,1.57763 -4.13694,4.94167 -5.96875,7.90625 z"
             inkscape:connector-curvature="0" />
          <path
             id="path7427"
             d="m 531.90625,708.54894 8.75,13.25 141.42136,141.42136 -8.75,-13.25 z"
             inkscape:connector-curvature="0" />
          <path
             id="path7429"
             d="m 540.65625,721.79894 18.0625,-12.34375 141.42136,141.42136 -18.0625,12.34375 z"
             inkscape:connector-curvature="0" />
          <path
             id="path7431"
             d="m 558.71875,709.45519 -31.3125,-31.75 141.42136,141.42136 31.3125,31.75 z"
             inkscape:connector-curvature="0" />
          <path
             id="path7433"
             d="m 703.5625,678.23644 -43.625,25.125 141.42136,141.42136 43.625,-25.125 z"
             inkscape:connector-curvature="0" />
          <path
             id="path7435"
             d="m 659.9375,703.36144 6.96875,8.71875 141.42136,141.42136 -6.96875,-8.71875 z"
             inkscape:connector-curvature="0" />
          <path
             id="path7437"
             d="m 666.90625,712.08019 c -11.9099,65.07434 -11.52143,79.87852 -21.4375,89.09375 L 786.89011,942.5953 c 9.91607,-9.21523 9.5276,-24.01941 21.4375,-89.09375 z"
             inkscape:connector-curvature="0" />
          <path
             id="path7439"
             d="m 645.46875,801.17394 40.3125,0 141.42136,141.42136 -40.3125,0 z"
             inkscape:connector-curvature="0" />
          <path
             id="path7441"
             d="M 685.78125,801.17394 674.3125,789.70519 815.73386,931.12655 827.20261,942.5953 z"
             inkscape:connector-curvature="0" />
          <path
             id="path7443"
             d="m 674.3125,789.70519 c 0.35314,-17.72221 17.66339,-23.91469 24.3125,-26.46875 L 840.04636,904.6578 c -6.64911,2.55406 -23.95936,8.74654 -24.3125,26.46875 z"
             inkscape:connector-curvature="0" />
          <path
             id="path7445"
             d="m 698.625,763.23644 c 1.43979,8.17522 6.811,26.29785 -3.15625,37.9375 L 836.89011,942.5953 c 9.96725,-11.63965 4.59604,-29.76228 3.15625,-37.9375 z"
             inkscape:connector-curvature="0" />
          <path
             id="path7447"
             d="m 695.46875,801.17394 39.0625,0 141.42136,141.42136 -39.0625,0 z"
             inkscape:connector-curvature="0" />
          <path
             id="path7449"
             d="m 734.53125,801.17394 c -6.99782,-7.25483 -10.62595,-29.75031 -15.4375,-45.75 L 860.51511,896.8453 c 4.81155,15.99969 8.43968,38.49517 15.4375,45.75 z"
             inkscape:connector-curvature="0" />
          <path
             id="path7451"
             d="m 719.09375,755.42394 c 4.91488,-1.61592 9.83839,-3.22124 14.875,-4.59375 l 141.42136,141.42136 c -5.03661,1.37251 -9.96012,2.97783 -14.875,4.59375 z"
             inkscape:connector-curvature="0" />
          <path
             id="path7453"
             d="m 733.96875,750.83019 -3.65625,-15.03125 141.42136,141.42136 3.65625,15.03125 z"
             inkscape:connector-curvature="0" />
          <path
             id="path7455"
             d="m 730.3125,735.79894 c -4.76339,0.59431 -10.03872,2.3558 -15.375,3.90625 l 141.42136,141.42136 c 5.33628,-1.55045 10.61161,-3.31194 15.375,-3.90625 z"
             inkscape:connector-curvature="0" />
          <path
             id="path7457"
             d="m 714.9375,739.70519 c -6.08468,-22.08409 -16.83847,-47.07687 -11.375,-61.46875 L 844.98386,819.6578 c -5.46347,14.39188 5.29032,39.38466 11.375,61.46875 z"
             inkscape:connector-curvature="0" />
          <path
             id="path7459"
             d="m 602.8125,678.45519 -44.46875,27.53125 141.42136,141.42136 44.46875,-27.53125 z"
             inkscape:connector-curvature="0" />
          <path
             id="path7461"
             d="m 558.34375,705.98644 15.90625,11.125 141.42136,141.42136 -15.90625,-11.125 z"
             inkscape:connector-curvature="0" />
          <path
             id="path7463"
             d="m 574.25,717.11144 c -0.36006,84.07709 0.93782,68.77585 -10.21875,84.0625 L 705.45261,942.5953 c 11.15657,-15.28665 9.85869,0.0146 10.21875,-84.0625 z"
             inkscape:connector-curvature="0" />
          <path
             id="path7465"
             d="m 564.03125,801.17394 40.875,0 141.42136,141.42136 -40.875,0 z"
             inkscape:connector-curvature="0" />
          <path
             id="path7467"
             d="m 604.90625,801.17394 c -0.86473,-0.55622 -1.63731,-1.17559 -2.32773,-1.86602 l 141.42136,141.42136 c 0.69042,0.69042 1.463,1.30979 2.32773,1.86602 z"
             inkscape:connector-curvature="0" />
          <path
             id="path7469"
             d="m 602.57852,799.30792 c -6.05149,-6.05149 -5.79157,-17.56142 -5.95352,-39.85273 l 141.42136,141.42136 c 0.16195,22.29131 -0.098,33.80124 5.95352,39.85273 z"
             inkscape:connector-curvature="0" />
          <path
             id="path7471"
             d="m 596.625,759.45519 12.34375,10.03125 141.42136,141.42136 -12.34375,-10.03125 z"
             inkscape:connector-curvature="0" />
          <path
             id="path7473"
             d="m 608.96875,769.48644 c 0.0567,9.11666 -1.75391,20.53719 6.50039,28.79148 l 141.42135,141.42136 c -8.25429,-8.2543 -6.44367,-19.67483 -6.50038,-28.79148 z"
             inkscape:connector-curvature="0" />
          <path
             id="path7475"
             d="m 615.46914,798.27792 c 1.01679,1.01679 2.18631,1.98554 3.53086,2.89602 L 760.42136,942.5953 c -1.34455,-0.91048 -2.51407,-1.87923 -3.53087,-2.89602 z"
             inkscape:connector-curvature="0" />
          <path
             id="path7477"
             d="m 619,801.17394 25.3125,0 141.42136,141.42136 -25.3125,0 z"
             inkscape:connector-curvature="0" />
          <path
             id="path7479"
             d="m 644.3125,801.17394 c -0.31049,-0.28629 -0.61187,-0.57575 -0.90439,-0.86827 l 141.42135,141.42135 c 0.29253,0.29252 0.5939,0.58198 0.9044,0.86828 z"
             inkscape:connector-curvature="0" />
          <path
             id="path7481"
             d="m 643.40811,800.30567 c -11.80512,-11.80512 -9.1851,-28.59475 -9.03311,-43.31923 L 775.79636,898.4078 c -0.152,14.72448 -2.77201,31.5141 9.0331,43.31922 z"
             inkscape:connector-curvature="0" />
          <path
             id="path7483"
             d="m 634.375,756.98644 -15.84375,-9.5 141.42136,141.42136 15.84375,9.5 z"
             inkscape:connector-curvature="0" />
          <path
             id="path7485"
             d="M 618.53125,747.48644 645.625,724.76769 787.04636,866.18905 759.95261,888.9078 z"
             inkscape:connector-curvature="0" />
          <path
             id="path7487"
             d="m 645.625,724.76769 -42.8125,-46.3125 141.42136,141.42136 42.8125,46.3125 z"
             inkscape:connector-curvature="0" />
          <path
             id="path7489"
             d="m 418.875,681.11144 -30.9375,23.75 141.42136,141.42136 30.9375,-23.75 z"
             inkscape:connector-curvature="0" />
          <path
             id="path7491"
             d="m 387.9375,704.86144 c 3.43893,3.20827 6.97677,6.50973 9.75,9.21875 l 141.42136,141.42136 c -2.77323,-2.70902 -6.31107,-6.01048 -9.75,-9.21875 z"
             inkscape:connector-curvature="0" />
          <path
             id="path7493"
             d="m 397.6875,714.08019 -0.1875,12.3125 141.42136,141.42136 0.1875,-12.3125 z"
             inkscape:connector-curvature="0" />
          <path
             id="path7495"
             d="m 397.5,726.39269 c -2.81661,-3.0992 -5.49869,-5.91996 -8.07214,-8.49341 l 141.42136,141.42135 c 2.57345,2.57345 5.25553,5.39421 8.07214,8.49342 z"
             inkscape:connector-curvature="0" />
          <path
             id="path7497"
             d="m 389.42786,717.89928 c -20.85964,-20.85965 -34.58203,-25.4704 -54.95911,-30.41284 L 475.89011,828.9078 c 20.37708,4.94244 34.09947,9.55319 54.95911,30.41283 z"
             inkscape:connector-curvature="0" />
          <path
             id="path7499"
             d="m 334.46875,687.48644 c 0.785,-0.91884 1.61123,-1.87797 2.53125,-2.90625 l 141.42136,141.42136 c -0.92002,1.02828 -1.74625,1.98741 -2.53125,2.90625 z"
             inkscape:connector-curvature="0" />
          <path
             id="path7501"
             d="m 337,684.58019 -45.84375,0 141.42136,141.42136 45.84375,0 z"
             inkscape:connector-curvature="0" />
          <path
             id="path7503"
             d="m 291.15625,684.58019 c 0.34972,0.31399 0.68799,0.63462 1.01517,0.96181 l 141.42136,141.42136 c -0.32718,-0.32719 -0.66545,-0.64782 -1.01517,-0.96181 z"
             inkscape:connector-curvature="0" />
          <path
             id="path7505"
             d="m 292.17142,685.542 c 11.71506,11.71505 9.21784,31.8305 9.20358,56.31944 L 442.79636,883.2828 c 0.0143,-24.48894 2.51147,-44.60439 -9.20358,-56.31944 z"
             inkscape:connector-curvature="0" />
          <path
             id="path7507"
             d="m 301.375,741.86144 c -0.0162,28.07457 1.97432,44.35343 -8,59.3125 L 434.79636,942.5953 c 9.97432,-14.95907 7.9838,-31.23793 8,-59.3125 z"
             inkscape:connector-curvature="0" />
          <path
             id="path7509"
             d="m 293.375,801.17394 44.59375,0 141.42136,141.42136 -44.59375,0 z"
             inkscape:connector-curvature="0" />
          <path
             id="path7511"
             d="m 337.96875,801.17394 38.65625,0 141.42136,141.42136 -38.65625,0 z"
             inkscape:connector-curvature="0" />
          <path
             id="path7513"
             d="m 376.625,801.17394 c -0.80163,-0.60054 -1.51842,-1.21424 -2.159,-1.85483 l 141.42136,141.42136 c 0.64058,0.64058 1.35736,1.25428 2.159,1.85483 z"
             inkscape:connector-curvature="0" />
          <path
             id="path7515"
             d="m 374.466,799.31911 c -8.25862,-8.25862 -3.85181,-20.9853 -5.30975,-67.58267 L 510.57761,873.1578 c 1.45794,46.59737 -2.94888,59.32405 5.30975,67.58267 z"
             inkscape:connector-curvature="0" />
          <path
             id="path7517"
             d="M 369.15625,731.73644 397.6875,757.33019 539.10886,898.75155 510.57761,873.1578 z"
             inkscape:connector-curvature="0" />
          <path
             id="path7519"
             d="m 397.6875,757.33019 0,31.34375 141.42136,141.42136 0,-31.34375 z"
             inkscape:connector-curvature="0" />
          <path
             id="path7521"
             d="m 397.6875,788.67394 -6.4375,12.5 141.42136,141.42136 6.4375,-12.5 z"
             inkscape:connector-curvature="0" />
          <path
             id="path7523"
             d="m 391.25,801.17394 35,0 141.42136,141.42136 -35,0 z"
             inkscape:connector-curvature="0" />
          <path
             id="path7525"
             d="m 426.25,801.17394 c -10.1499,-10.84867 -7.40571,0.009 -7.375,-120.0625 L 560.29636,822.5328 c -0.0307,120.0715 -2.7749,109.21383 7.375,120.0625 z"
             inkscape:connector-curvature="0" />
          <path
             id="path7527"
             d="m 333.71875,688.33019 -4.34375,15.25 141.42136,141.42136 4.34375,-15.25 z"
             inkscape:connector-curvature="0" />
          <path
             id="path7529"
             d="m 329.375,703.58019 c 4.04224,1.80296 8.3754,4.00348 13.625,7.53125 L 484.42136,852.5328 c -5.2496,-3.52777 -9.58276,-5.72829 -13.625,-7.53125 z"
             inkscape:connector-curvature="0" />
          <path
             id="path7531"
             d="m 343,711.11144 c 0.25084,78.50554 1.82784,77.2167 -5.4375,89.75 L 478.98386,942.2828 c 7.26534,-12.5333 5.68834,-11.24446 5.4375,-89.75 z"
             inkscape:connector-curvature="0" />
          <path
             id="path7533"
             d="m 337.5625,800.86144 c -1.61281,-1.18022 -2.99783,-2.34923 -4.18626,-3.53765 L 474.7976,938.74515 c 1.18842,1.18842 2.57345,2.35743 4.18626,3.53765 z"
             inkscape:connector-curvature="0" />
          <path
             id="path7535"
             d="m 333.37624,797.32379 c -10.3256,-10.3256 -5.80983,-22.11686 -6.90749,-55.46235 L 467.89011,883.2828 c 1.09765,33.34548 -3.41811,45.13674 6.90749,55.46235 z"
             inkscape:connector-curvature="0" />
          <path
             id="path7537"
             d="m 326.46875,741.86144 c -1.25572,-38.14503 -0.32195,-44.39665 7.25,-53.53125 l 141.42136,141.42136 c -7.57195,9.1346 -8.50572,15.38622 -7.25,53.53125 z"
             inkscape:connector-curvature="0" />
          <path
             id="path7539"
             d="m 596.53125,710.86144 11.25,11.875 141.42136,141.42136 -11.25,-11.875 z"
             inkscape:connector-curvature="0" />
          <path
             id="path7541"
             d="m 607.78125,722.73644 -11.25,12.8125 141.42136,141.42136 11.25,-12.8125 z"
             inkscape:connector-curvature="0" />
          <path
             id="path7543"
             d="m 596.53125,735.54894 0,-24.6875 141.42136,141.42136 0,24.6875 z"
             inkscape:connector-curvature="0" />
          <path
             id="path7545"
             d="m 686.65625,722.54894 c 2.85174,8.07315 6.73605,15.86584 8.34375,24.25 L 836.42136,888.2203 c -1.6077,-8.38416 -5.49201,-16.17685 -8.34375,-24.25 z"
             inkscape:connector-curvature="0" />
          <path
             id="path7547"
             d="m 695,746.79894 c -7.37475,3.24211 -10.4446,5.1723 -14.53125,8.25 L 821.89011,896.4703 c 4.08665,-3.0777 7.1565,-5.00789 14.53125,-8.25 z"
             inkscape:connector-curvature="0" />
          <path
             id="path7549"
             d="m 680.46875,755.04894 6.1875,-32.5 141.42136,141.42136 -6.1875,32.5 z"
             inkscape:connector-curvature="0" />
        </g>
        <path
           inkscape:connector-curvature="0"
           id="path7551"
           d="m 168.625,658.51769 c 9.92715,8.39016 8.1875,8.79034 8.1875,69 0,71.95629 -0.32469,60.417 -12.09375,73.65625 l 47.625,0 c -8.88774,-4.71829 -5.78125,-36.37876 -5.78125,-85.28125 l 22.59375,83.28125 21.0625,-83.90625 c -1.73276,52.59127 5.95521,81.72634 -4.4375,85.90625 l 46.5625,0 c -19.34209,-20.05071 -13.43469,-15.35076 -12.9375,-73.3125 0.49476,-57.68047 -3.1138,-60.31544 9.03125,-69.34375 l -56.90625,0 c 7.25028,4.7754 1.24243,23.35117 -3.9375,50.21875 -4.54142,-25.49505 -11.42249,-43.36709 -2.96875,-50.21875 l -56,0 z m 634.21875,0 0,42.5625 c 6.45512,-10.08369 15.79037,-11.31813 25.125,-12.59375 0,113.94341 1.2079,94.75015 -14.15625,112.6875 l 61.375,0 c -17.79382,-19.02298 -16.375,-13.49263 -16.375,-112.59375 12.44546,0.8003 21.38222,5.94268 28.8125,12.96875 l 0,-43.03125 -84.78125,0 z m -23.6875,16.09375 -52.8125,35.5625 c 2.29534,0.56144 10.61828,3.79767 17.0625,6.15625 0.91145,58.62992 5.89292,68.69609 -6.4375,84.84375 l 44,0 c -12.66743,-10.97038 -11.15778,-21.12982 -10.9375,-47.34375 l 16.5625,0 6.28125,6.28125 0,-24.4375 -23.125,0 0,-23.3125 c 1.92527,-2.77219 5.33184,-5.79799 8.9375,-8.90625 l 13.40625,16.40625 13.03125,-10.9375 -25.96875,-34.3125 z m -308.4375,2.15625 -50.0625,35.6875 15.90625,5.6875 c -0.29451,61.71821 4.71674,66.62222 -5.34375,83.03125 l 64.34375,0 0,-31.15625 c -6.17895,6.91348 -14.99145,11.99329 -32.9375,10.6875 l 0,-26.59375 17.3125,0 5.21875,4.65625 0,-22.125 -22.53125,0 0,-23.53125 c 2.67131,-2.71116 5.4558,-5.09498 8.375,-7.0625 l 13.03125,12.75 11.4375,-7.71875 -24.75,-34.3125 z m 56.6875,0.9375 -27.53125,29.28125 0,75.46875 29.09375,32.21875 26.96875,-23.9375 -8.09375,-25.9375 -16.28125,17.5625 -5.625,-7.25 0,-58.65625 c 1.83181,-2.96458 3.44348,-6.32862 5.96875,-7.90625 l 8.75,13.25 18.0625,-12.34375 -31.3125,-31.75 z m 176.15625,0.53125 -43.625,25.125 6.96875,8.71875 c -11.9099,65.07434 -11.52143,79.87852 -21.4375,89.09375 l 40.3125,0 -11.46875,-11.46875 c 0.35314,-17.72221 17.66339,-23.91469 24.3125,-26.46875 1.43979,8.17522 6.811,26.29785 -3.15625,37.9375 l 39.0625,0 c -6.99782,-7.25483 -10.62595,-29.75031 -15.4375,-45.75 4.91488,-1.61592 9.83839,-3.22124 14.875,-4.59375 l -3.65625,-15.03125 c -4.76339,0.59431 -10.03872,2.3558 -15.375,3.90625 -6.08468,-22.08409 -16.83847,-47.07687 -11.375,-61.46875 z m -100.75,0.21875 -44.46875,27.53125 15.90625,11.125 c -0.36006,84.07709 0.93782,68.77585 -10.21875,84.0625 l 40.875,0 c -8.44402,-5.43148 -8.10082,-16.88419 -8.28125,-41.71875 l 12.34375,10.03125 c 0.0637,10.23968 -2.22832,23.38579 10.03125,31.6875 l 25.3125,0 c -12.84087,-11.84006 -10.09326,-29.09816 -9.9375,-44.1875 l -15.84375,-9.5 27.09375,-22.71875 -42.8125,-46.3125 z m -183.9375,2.65625 -30.9375,23.75 c 3.43893,3.20827 6.97677,6.50973 9.75,9.21875 l -0.1875,12.3125 c -25.64721,-28.22045 -40.14025,-33.35406 -63.03125,-38.90625 0.785,-0.91884 1.61123,-1.87797 2.53125,-2.90625 l -45.84375,0 c 12.87165,11.55668 10.23341,32.10837 10.21875,57.28125 -0.0162,28.07457 1.97432,44.35343 -8,59.3125 l 44.59375,0 38.65625,0 c -11.13654,-8.34293 -5.89772,-19.22578 -7.46875,-69.4375 l 28.53125,25.59375 0,31.34375 -6.4375,12.5 35,0 c -10.1499,-10.84867 -7.40571,0.009 -7.375,-120.0625 z m -85.15625,7.21875 -4.34375,15.25 c 4.04224,1.80296 8.3754,4.00348 13.625,7.53125 0.25084,78.50554 1.82784,77.2167 -5.4375,89.75 -15.6257,-11.43455 -9.86976,-21.81662 -11.09375,-59 -1.25572,-38.14503 -0.32195,-44.39665 7.25,-53.53125 z m 262.8125,22.53125 11.25,11.875 -11.25,12.8125 0,-24.6875 z m 90.125,11.6875 c 2.85174,8.07315 6.73605,15.86584 8.34375,24.25 -7.37475,3.24211 -10.4446,5.1723 -14.53125,8.25 l 6.1875,-32.5 z"
           style="fill:#4a421c;fill-opacity:1;fill-rule:nonzero;stroke:none" />
      </g>
    </clipPath>
    <clipPath
       clipPathUnits="userSpaceOnUse"
       id="clipPath7568">
      <path
         style="fill:#121c26;fill-opacity:1;fill-rule:nonzero;stroke:none"
         d="M 526.1875,520.01769 C 501.79231,570.73689 418.57554,501.23631 403,541.36144 c -14.62223,-30.51807 -55.86419,-1.00994 -120.9375,-1.96875 -19.9548,65.30573 -39.90137,96.25881 -145.15625,106.875 11.89808,47.57068 19.96861,118.63831 20.65625,167.84375 89.58185,-2.63057 158.29338,-3.27343 240.4375,11.6875 l 0.40625,-8.3125 c 40.42936,4.785 89.84956,12.19705 127.78125,21.3125 37.93169,-9.11545 87.35189,-16.5275 127.78125,-21.3125 l 0.40625,8.3125 c 82.14412,-14.96093 150.8244,-14.31807 240.40625,-11.6875 0.68764,-49.20544 8.75817,-120.27307 20.65625,-167.84375 -105.25488,-10.61619 -125.1702,-41.56927 -145.125,-106.875 -65.07331,0.95881 -106.31527,-28.54932 -120.9375,1.96875 -15.57554,-40.12513 -98.79231,29.37545 -123.1875,-21.34375 z"
         id="path7570"
         inkscape:connector-curvature="0" />
    </clipPath>
    <filter
       inkscape:collect="always"
       id="filter7693"
       x="-0.061782025"
       width="1.123564"
       y="-0.42870968"
       height="1.8574194">
      <feGaussianBlur
         inkscape:collect="always"
         stdDeviation="24.91875"
         id="feGaussianBlur7695" />
    </filter>
    <clipPath
       clipPathUnits="userSpaceOnUse"
       id="clipPath7697">
      <g
         style="fill:#b1a56e;fill-opacity:1"
         transform="matrix(0.73646561,0,0,0.73646561,239.72531,353.11666)"
         id="g7699">
        <path
           style="fill:#b1a56e;fill-opacity:1;fill-rule:nonzero;stroke:none"
           d="m 71.178606,307.71932 50.892804,-45.89285 0,136.42857 c 22.0055,-0.41101 43.6816,-1.2148 53.5715,-16.07143 l 0,41.07143 c -3.5406,15.36237 -34.5348,11.78571 -81.785804,11.78571 l -22.3214,-30.89285 c 19.2437,-1.93868 15.801,-4.28158 15.3572,-82.67858 z"
           id="path7701"
           inkscape:connector-curvature="0"
           sodipodi:nodetypes="ccccccccc" />
        <path
           sodipodi:nodetypes="ccccccccccccccccc"
           inkscape:connector-curvature="0"
           id="path7703"
           d="m 171.73221,314.57202 21.5921,7.70241 c -0.3999,83.80325 6.4,90.48554 -7.2605,112.76632 l 87.3782,0 0,-42.30818 c -8.39,9.38738 -20.3315,16.29399 -44.6993,14.52094 l 0,-36.11295 23.4861,0 7.071,6.31345 0,-30.05204 -30.5571,0 0,-31.94607 c 3.6272,-3.68131 7.4004,-6.92488 11.3642,-9.59645 l 17.6777,17.29886 15.5311,-10.48033 -33.5876,-46.59329 z"
           style="fill:#b1a56e;fill-opacity:1;fill-rule:nonzero;stroke:none" />
        <path
           style="fill:#b1a56e;fill-opacity:1;fill-rule:nonzero;stroke:none"
           d="m 354.12501,268.09375 -59.2188,34.09375 9.4688,11.875 c -16.1717,88.36032 -15.6606,108.45597 -29.125,120.96875 l 54.75,0 -15.5938,-15.59375 c 0.4795,-24.06386 24.0029,-32.4695 33.0313,-35.9375 1.955,11.10062 9.2526,35.7265 -4.2813,51.53125 l 53.0313,0 c -9.5019,-9.85088 -14.4405,-40.40385 -20.9738,-62.12881 6.6736,-2.19416 13.3574,-4.36795 20.1963,-6.2316 l -4.9457,-20.40298 c -6.4679,0.80697 -13.621,3.17508 -20.8668,5.28034 -8.262,-29.98659 -22.891,-63.91263 -15.4725,-83.45445 z M 331.18751,328.25 c 3.8722,10.96202 9.1563,21.57104 11.3393,32.95536 -10.0137,4.40225 -14.1966,6.99063 -19.7456,11.16964 z"
           id="path7705"
           inkscape:connector-curvature="0"
           sodipodi:nodetypes="cccccccccccccccccc" />
        <path
           style="fill:#b1a56e;fill-opacity:1;fill-rule:nonzero;stroke:none"
           d="m 449.71361,451.19515 42.1739,-42.30014 30.9359,41.41625 -25.3801,-94.57553 -45.3306,0 0,20.96067 19.3192,0 c 1.5918,2.24219 2.8943,4.64404 2.7779,7.82868 l -21.2132,16.79379 -8.8388,-6.69226 0,-68.31157 8.7125,-11.74302 14.2684,19.69797 27.0216,-18.68782 -47.3509,-48.9924 -43.9416,46.34075 0,89.65104 z"
           id="path7707"
           inkscape:connector-curvature="0"
           sodipodi:nodetypes="cccccccccccccccccc" />
        <path
           style="fill:#b1a56e;fill-opacity:1;fill-rule:nonzero;stroke:none"
           d="m 514.03571,302.18361 47.5,-23.92857 0,102.32143 14.4643,21.78571 14.4643,-21.42857 0,-66.42857 c -7.1517,-6.01617 -11.0971,-9.03982 -15.8929,-12.85714 l 43.9286,-24.10715 0,117.32143 c -30.2061,68.45983 -60.7483,51.87896 -91.4286,0.35714 l 0,-80.35714 c -3.3224,-5.93093 -8.2494,-9.18753 -13.0357,-12.67857 z"
           id="path7709"
           inkscape:connector-curvature="0"
           sodipodi:nodetypes="cccccccccccc" />
        <path
           style="fill:#b1a56e;fill-opacity:1;fill-rule:nonzero;stroke:none"
           d="m 620.74501,314.57202 21.5921,7.70241 c -0.3999,83.80325 6.4,90.48554 -7.2605,112.76632 l 87.3782,0 0,-42.30818 c -8.39,9.38738 -20.3315,16.29399 -44.6993,14.52094 l 0,-36.11295 23.4861,0 7.071,6.31345 0,-30.05204 -30.5571,0 0,-31.94607 c 3.6272,-3.68131 7.4004,-6.92488 11.3642,-9.59645 l 17.6777,17.29886 15.5311,-10.48033 -33.5876,-46.59329 z"
           id="path7711"
           inkscape:connector-curvature="0"
           sodipodi:nodetypes="ccccccccccccccccc" />
        <path
           style="fill:#b1a56e;fill-opacity:1;fill-rule:nonzero;stroke:none"
           d="m 784.7536,341.44063 -20.64349,13.34274 -13.31761,-12.00846 -13.64477,11.07699 0,30.61279 13.6952,13.6952 13.26718,-13.26723 0,-28.39739 c 1.82581,0.44659 3.22731,0.62281 5.79025,1.56085 0.29887,23.33411 1.45499,28.09272 -2.03914,34.16247 l 17.49658,0 c -5.03805,-4.36312 -4.44296,-8.40514 -4.35531,-18.83089 l 6.59593,0 2.49229,2.49232 0,-9.71755 -9.18892,0 0,-9.2644 c 0.76572,-1.10255 2.11566,-2.31346 3.54972,-3.54967 l 5.18605,6.09235 5.18604,-4.35528 -10.07,-13.64484 z m -33.86041,14.09799 4.00287,2.3161 0,22.5568 -4.45593,2.56785 -4.38053,-2.4168 0,-22.22953 4.83359,-2.79442 z"
           id="path7713"
           inkscape:connector-curvature="0" />
        <path
           style="fill:#b1a56e;fill-opacity:1;fill-rule:nonzero;stroke:none"
           d="m -101.82969,608.40014 c 15.980456,-17.97674 16.414976,-2.30021 16.414976,-100.0051 0,-81.75489 2.36777,-82.29918 -11.11168,-93.69165 l 76.014,0 c -11.4788,9.30344 -2.1259,33.56717 4.0406,68.18529 7.0334996,-36.48179 15.1860996,-61.70108 5.3414,-68.18529 l 77.2596,0 c -16.491,12.25897 -11.5732,15.82863 -12.245,94.14929 -0.6751,78.70258 -8.7121,72.32187 17.5513,99.54746 l -63.2243004,0 C 22.322806,602.72451 11.876606,563.17307 14.229406,491.76272 l -28.5865,113.92535 -30.6515,-113.07667 c 0,66.4016 -4.2394,109.38207 7.8287,115.78874 z"
           id="path7715"
           inkscape:connector-curvature="0"
           sodipodi:nodetypes="cscccccsccccccc" />
        <path
           style="fill:#b1a56e;fill-opacity:1;fill-rule:nonzero;stroke:none"
           d="m 72.850906,608.40014 60.546004,0 c -21.9421,-15.69588 -13.9497,-29.58355 -15.6267,-80.52891 -1.9251,-58.47868 -0.043,-61.75536 14.3009,-77.78725 l -62.225404,0 c 17.4776,15.69209 13.8757,43.60685 13.8558,77.78751 -0.022,38.12068 2.6929,60.21667 -10.8506,80.52865 z"
           id="path7717"
           inkscape:connector-curvature="0"
           sodipodi:nodetypes="ccsccsc" />
        <path
           style="fill:#b1a56e;fill-opacity:1;fill-rule:nonzero;stroke:none"
           d="m 132.60141,608.40014 53.2982,0 c -15.1216,-11.32833 -8.0164,-26.10864 -10.1496,-94.28796 l 38.75,34.75 -0.014,42.5679 -8.7364,16.97006 47.5,0 c -13.7819,-14.73072 -10.0417,0 -10,-163.03796 l -42,32.25 c 4.6695,4.3563 9.4844,8.8216 13.25,12.5 l -0.25,16.75 c -35.0674,-38.58579 -54.79,-45.39915 -86.25,-53 l -6.25,22 c 5.4887,2.44813 11.3719,5.45987 18.5,10.25 0.3436,107.53796 2.5183,104.7751 -7.6486,122.28796 z"
           id="path7719"
           inkscape:connector-curvature="0"
           sodipodi:nodetypes="ccccccccccccccc" />
        <path
           style="fill:#b1a56e;fill-opacity:1;fill-rule:nonzero;stroke:none"
           d="m 245.66971,487.93141 21.5921,7.70241 c -0.3999,83.80325 6.4,90.48554 -7.2605,112.76632 l 87.3782,0 0,-42.30818 c -8.39,9.38738 -20.3315,16.29399 -44.6993,14.52094 l 0,-36.11295 23.4861,0 7.071,6.31345 0,-30.05204 -30.5571,0 0,-31.94607 c 3.6272,-3.68131 7.4004,-6.92488 11.3642,-9.59645 l 17.6777,17.29886 15.5311,-10.48033 -33.5876,-46.59329 z"
           id="path7721"
           inkscape:connector-curvature="0"
           sodipodi:nodetypes="ccccccccccccccccc" />
        <path
           sodipodi:nodetypes="cccccccccccccccccc"
           inkscape:connector-curvature="0"
           id="path7723"
           d="m 629.79921,441.46264 -59.2188,34.09375 9.4688,11.875 c -16.1717,88.36032 -15.6606,108.45597 -29.125,120.96875 l 54.75,0 -15.5938,-15.59375 c 0.4795,-24.06386 24.0029,-32.4695 33.0313,-35.9375 1.955,11.10062 9.2526,35.7265 -4.2813,51.53125 l 53.0313,0 c -9.5019,-9.85088 -14.4405,-40.40385 -20.9738,-62.12881 6.6736,-2.19416 13.3574,-4.36795 20.1963,-6.2316 l -4.9457,-20.40298 c -6.4679,0.80697 -13.621,3.17508 -20.8668,5.28034 -8.262,-29.98659 -22.891,-63.91263 -15.4725,-83.45445 z m -22.9375,60.15625 c 3.8722,10.96202 9.1563,21.57104 11.3393,32.95536 -10.0137,4.40225 -14.1966,6.99063 -19.7456,11.16964 z"
           style="fill:#b1a56e;fill-opacity:1;fill-rule:nonzero;stroke:none" />
        <path
           id="path7725"
           d="m 732.47231,436.54075 -71.7096,48.29286 c 3.1167,0.76235 14.4011,5.14522 23.1513,8.34778 1.2376,79.60986 8.0131,93.29286 -8.7296,115.21875 l 59.7346,0 c -17.2003,-14.89599 -15.1685,-28.69571 -14.8694,-64.28994 l 22.519,0 8.5087,8.50895 0,-33.17635 -31.3714,0 0,-31.62928 c 2.6142,-3.76418 7.223,-7.89832 12.1189,-12.11883 l 18.2054,22.29968 17.7056,-14.8692 z"
           style="fill:#b1a56e;fill-opacity:1;fill-rule:nonzero;stroke:none"
           inkscape:connector-curvature="0"
           sodipodi:nodetypes="ccccccccccccccc" />
        <path
           style="fill:#b1a56e;fill-opacity:1;fill-rule:nonzero;stroke:none"
           d="m 392.75001,626.73718 -39.5,-43.75 0,-102.5 37.375,-39.75 42.5,43.125 -24.5,16.75 -11.875,-18 c -3.4289,2.14217 -5.6377,6.72458 -8.125,10.75 l 0,79.625 7.625,9.875 22.125,-23.875 11,35.25 z"
           id="path7727"
           inkscape:connector-curvature="0"
           sodipodi:nodetypes="ccccccccccccc" />
        <path
           style="fill:#b1a56e;fill-opacity:1;fill-rule:nonzero;stroke:none"
           d="m 493.00001,441.75 -60.375,37.375 21.625,15.125 c -0.4889,114.16296 1.2738,93.39948 -13.875,114.15625 l 55.5,0 c -11.4656,-7.37506 -11.005,-22.93498 -11.25,-56.65625 l 16.75,13.625 c 0.0865,13.90381 -3.0215,31.75888 13.625,43.03125 l 34.375,0 c -17.4358,-16.07687 -13.7115,-39.54239 -13.5,-60.03125 l -21.5,-12.875 36.75,-30.875 -58.125,-62.875 z m -8.5,44 15.25,16.125 -15.25,17.40625 0,-33.53125 z"
           id="path7729"
           inkscape:connector-curvature="0" />
        <path
           style="fill:#b1a56e;fill-opacity:1;fill-rule:nonzero;stroke:none"
           d="m 779.50001,608.40014 c 20.862,-24.35599 19.25,1.67858 19.25,-153.03796 -12.6749,1.73208 -25.36,3.433 -34.125,17.125 l 0,-57.78379 115.125,0 0,58.40879 c -10.0891,-9.54026 -22.2261,-16.53833 -39.125,-17.625 0,134.56313 -1.9111,127.08286 22.25,152.91296 z"
           id="path7731"
           inkscape:connector-curvature="0"
           sodipodi:nodetypes="ccccccccc" />
      </g>
    </clipPath>
    <linearGradient
       inkscape:collect="always"
       xlink:href="#linearGradient7733"
       id="linearGradient7739"
       x1="567.6405"
       y1="509.55118"
       x2="567.6405"
       y2="847.13745"
       gradientUnits="userSpaceOnUse" />
    <linearGradient
       inkscape:collect="always"
       xlink:href="#linearGradient7733"
       id="linearGradient7741"
       x1="448.65924"
       y1="200.57637"
       x2="448.65924"
       y2="536.41559"
       gradientUnits="userSpaceOnUse" />
  </defs>
  <metadata
     id="metadata7">
    <rdf:RDF>
      <cc:Work
         rdf:about="">
        <dc:format>image/svg+xml</dc:format>
        <dc:type
           rdf:resource="http://purl.org/dc/dcmitype/StillImage" />
        <dc:title></dc:title>
      </cc:Work>
    </rdf:RDF>
  </metadata>
  <g
     inkscape:label="Layer 1"
     inkscape:groupmode="layer"
     id="layer1"
     transform="translate(0,-308.26769)">
    <path
       sodipodi:nodetypes="cccccccccc"
       inkscape:connector-curvature="0"
       id="path3796"
       d="m 526.1811,845.86217 c 49.54884,-11.76712 72.81825,-15.63133 122.9311,-21.75 l 0.25,8.5 c 89.66923,-17.43975 158.52347,-17.40598 250.70688,-12.88813 3.38401,-58.54582 7.37835,-114.88849 22.53903,-178.01413 C 805.01976,630.40378 793.48939,592.48422 775.2372,533.48717 c -80.81842,-1.90549 -111.45039,-24.78571 -126.125,-2.25 -20.82583,-33.00633 -94.82586,35.11397 -122.9311,-21.41421 l -92.89089,140.90256 z"
       style="fill:url(#linearGradient7739);fill-opacity:1;fill-rule:nonzero;stroke:none"
       inkscape:export-filename="/home/piotrek/Obrazy/Others/ITPlanet/leagueofminecraft/g7688.png"
       inkscape:export-xdpi="22.475765"
       inkscape:export-ydpi="22.475765" />
    <path
       style="fill:url(#linearGradient7741);fill-opacity:1;fill-rule:nonzero;stroke:none"
       d="m 526.1811,537.59448 c -49.54884,-11.76712 -72.81825,-15.63133 -122.9311,-21.75 l -0.25,8.5 C 313.33077,506.90473 244.47653,506.9385 152.29312,511.45635 148.90911,452.91053 144.91477,396.56786 129.75409,333.44222 247.34244,322.13609 258.87281,284.21653 277.125,225.21948 c 80.81842,-1.90549 111.45039,-24.78571 126.125,-2.25 20.82583,-33.00633 94.82586,35.11397 122.9311,-21.41421 l 92.89089,140.90256 z"
       id="path3794"
       inkscape:connector-curvature="0"
       transform="translate(0,308.26769)"
       sodipodi:nodetypes="cccccccccc"
       inkscape:export-filename="/home/piotrek/Obrazy/Others/ITPlanet/leagueofminecraft/g7688.png"
       inkscape:export-xdpi="22.475765"
       inkscape:export-ydpi="22.475765" />
    <path
       style="fill:#243546;fill-opacity:1;fill-rule:nonzero;stroke:none"
       d="m 157.57107,814.10481 c -0.68764,-49.20544 -8.75268,-120.25165 -20.65076,-167.82233 105.25488,-10.61619 125.18555,-41.59377 145.14035,-106.8995 65.07331,0.95881 106.31711,-28.53888 120.93934,1.97919 15.57554,-40.12513 98.78591,29.37605 123.1811,-21.34315 l 66.8189,179 -66.8189,139.7684 c -37.93169,-9.11545 -87.34793,-16.5238 -127.77729,-21.3088 L 398,825.7845 C 315.85588,810.82357 247.15292,811.47424 157.57107,814.10481 z"
       id="path3792"
       inkscape:connector-curvature="0"
       sodipodi:nodetypes="cccccccccc"
       inkscape:export-filename="/home/piotrek/Obrazy/Others/ITPlanet/leagueofminecraft/g7688.png"
       inkscape:export-xdpi="22.475765"
       inkscape:export-ydpi="22.475765" />
    <path
       sodipodi:nodetypes="cccccccccc"
       inkscape:connector-curvature="0"
       id="path3790"
       d="m 894.79113,814.10481 c 0.68764,-49.20544 8.75268,-120.25165 20.65076,-167.82233 C 810.18701,635.66629 790.25634,604.68871 770.30154,539.38298 705.22823,540.34179 663.98443,510.8441 649.3622,541.36217 633.78666,501.23704 550.57629,570.73822 526.1811,520.01902 l -66.8189,179 66.8189,139.7684 c 37.93169,-9.11545 87.34793,-16.5238 127.77729,-21.3088 l 0.40381,8.30588 c 82.14412,-14.96093 150.84708,-14.31026 240.42893,-11.67969 z"
       style="fill:#243546;fill-opacity:1;fill-rule:nonzero;stroke:none"
       inkscape:export-filename="/home/piotrek/Obrazy/Others/ITPlanet/leagueofminecraft/g7688.png"
       inkscape:export-xdpi="22.475765"
       inkscape:export-ydpi="22.475765" />
    <g
       id="g7559"
       clip-path="url(#clipPath7568)"
       inkscape:export-filename="/home/piotrek/Obrazy/Others/ITPlanet/leagueofminecraft/g7688.png"
       inkscape:export-xdpi="22.475765"
       inkscape:export-ydpi="22.475765">
      <path
         id="rect6232"
         transform="translate(0,308.26769)"
         d="M 198 151.09375 L 198 634.3125 L 1016.5938 634.3125 L 1016.5938 151.09375 L 198 151.09375 z M 804.75 290.34375 C 804.75 290.34375 832.25 294.71875 837.625 296.46875 C 843 298.21875 846.75 317.84375 846.75 317.84375 C 831.29654 312.11948 817.04111 303.55779 804.75 290.34375 z "
         clip-path="url(#clipPath7043)"
         style="fill:url(#linearGradient6420);fill-opacity:1;fill-rule:nonzero;stroke:none" />
      <rect
         clip-path="url(#clipPath7291)"
         transform="translate(0,308.26769)"
         y="338.0148"
         x="136.9203"
         height="338.07968"
         width="920.07971"
         id="rect7281"
         style="fill:url(#linearGradient7289);fill-opacity:1;fill-rule:nonzero;stroke:none" />
    </g>
    <g
       id="g2998"
       transform="matrix(0.73646561,0,0,0.73646561,239.72531,353.11666)"
       style="fill:#b1a56e;fill-opacity:1"
       inkscape:export-filename="/home/piotrek/Obrazy/Others/ITPlanet/leagueofminecraft/g7688.png"
       inkscape:export-xdpi="22.475765"
       inkscape:export-ydpi="22.475765">
      <path
         sodipodi:nodetypes="ccccccccc"
         inkscape:connector-curvature="0"
         id="path2996"
         d="m 71.178606,307.71932 50.892804,-45.89285 0,136.42857 c 22.0055,-0.41101 43.6816,-1.2148 53.5715,-16.07143 l 0,41.07143 c -3.5406,15.36237 -34.5348,11.78571 -81.785804,11.78571 l -22.3214,-30.89285 c 19.2437,-1.93868 15.801,-4.28158 15.3572,-82.67858 z"
         style="fill:#b1a56e;fill-opacity:1;fill-rule:nonzero;stroke:none" />
      <path
         style="fill:#b1a56e;fill-opacity:1;fill-rule:nonzero;stroke:none"
         d="m 171.73221,314.57202 21.5921,7.70241 c -0.3999,83.80325 6.4,90.48554 -7.2605,112.76632 l 87.3782,0 0,-42.30818 c -8.39,9.38738 -20.3315,16.29399 -44.6993,14.52094 l 0,-36.11295 23.4861,0 7.071,6.31345 0,-30.05204 -30.5571,0 0,-31.94607 c 3.6272,-3.68131 7.4004,-6.92488 11.3642,-9.59645 l 17.6777,17.29886 15.5311,-10.48033 -33.5876,-46.59329 z"
         id="path3808"
         inkscape:connector-curvature="0"
         sodipodi:nodetypes="ccccccccccccccccc" />
      <path
         sodipodi:nodetypes="cccccccccccccccccc"
         inkscape:connector-curvature="0"
         id="path3772"
         d="m 354.12501,268.09375 -59.2188,34.09375 9.4688,11.875 c -16.1717,88.36032 -15.6606,108.45597 -29.125,120.96875 l 54.75,0 -15.5938,-15.59375 c 0.4795,-24.06386 24.0029,-32.4695 33.0313,-35.9375 1.955,11.10062 9.2526,35.7265 -4.2813,51.53125 l 53.0313,0 c -9.5019,-9.85088 -14.4405,-40.40385 -20.9738,-62.12881 6.6736,-2.19416 13.3574,-4.36795 20.1963,-6.2316 l -4.9457,-20.40298 c -6.4679,0.80697 -13.621,3.17508 -20.8668,5.28034 -8.262,-29.98659 -22.891,-63.91263 -15.4725,-83.45445 z M 331.18751,328.25 c 3.8722,10.96202 9.1563,21.57104 11.3393,32.95536 -10.0137,4.40225 -14.1966,6.99063 -19.7456,11.16964 z"
         style="fill:#b1a56e;fill-opacity:1;fill-rule:nonzero;stroke:none" />
      <path
         sodipodi:nodetypes="cccccccccccccccccc"
         inkscape:connector-curvature="0"
         id="path3777"
         d="m 449.71361,451.19515 42.1739,-42.30014 30.9359,41.41625 -25.3801,-94.57553 -45.3306,0 0,20.96067 19.3192,0 c 1.5918,2.24219 2.8943,4.64404 2.7779,7.82868 l -21.2132,16.79379 -8.8388,-6.69226 0,-68.31157 8.7125,-11.74302 14.2684,19.69797 27.0216,-18.68782 -47.3509,-48.9924 -43.9416,46.34075 0,89.65104 z"
         style="fill:#b1a56e;fill-opacity:1;fill-rule:nonzero;stroke:none" />
      <path
         sodipodi:nodetypes="cccccccccccc"
         inkscape:connector-curvature="0"
         id="path3798"
         d="m 514.03571,302.18361 47.5,-23.92857 0,102.32143 14.4643,21.78571 14.4643,-21.42857 0,-66.42857 c -7.1517,-6.01617 -11.0971,-9.03982 -15.8929,-12.85714 l 43.9286,-24.10715 0,117.32143 c -30.2061,68.45983 -60.7483,51.87896 -91.4286,0.35714 l 0,-80.35714 c -3.3224,-5.93093 -8.2494,-9.18753 -13.0357,-12.67857 z"
         style="fill:#b1a56e;fill-opacity:1;fill-rule:nonzero;stroke:none" />
      <path
         sodipodi:nodetypes="ccccccccccccccccc"
         inkscape:connector-curvature="0"
         id="path3802"
         d="m 620.74501,314.57202 21.5921,7.70241 c -0.3999,83.80325 6.4,90.48554 -7.2605,112.76632 l 87.3782,0 0,-42.30818 c -8.39,9.38738 -20.3315,16.29399 -44.6993,14.52094 l 0,-36.11295 23.4861,0 7.071,6.31345 0,-30.05204 -30.5571,0 0,-31.94607 c 3.6272,-3.68131 7.4004,-6.92488 11.3642,-9.59645 l 17.6777,17.29886 15.5311,-10.48033 -33.5876,-46.59329 z"
         style="fill:#b1a56e;fill-opacity:1;fill-rule:nonzero;stroke:none" />
      <path
         inkscape:connector-curvature="0"
         id="path3810"
         d="m 784.7536,341.44063 -20.64349,13.34274 -13.31761,-12.00846 -13.64477,11.07699 0,30.61279 13.6952,13.6952 13.26718,-13.26723 0,-28.39739 c 1.82581,0.44659 3.22731,0.62281 5.79025,1.56085 0.29887,23.33411 1.45499,28.09272 -2.03914,34.16247 l 17.49658,0 c -5.03805,-4.36312 -4.44296,-8.40514 -4.35531,-18.83089 l 6.59593,0 2.49229,2.49232 0,-9.71755 -9.18892,0 0,-9.2644 c 0.76572,-1.10255 2.11566,-2.31346 3.54972,-3.54967 l 5.18605,6.09235 5.18604,-4.35528 -10.07,-13.64484 z m -33.86041,14.09799 4.00287,2.3161 0,22.5568 -4.45593,2.56785 -4.38053,-2.4168 0,-22.22953 4.83359,-2.79442 z"
         style="fill:#b1a56e;fill-opacity:1;fill-rule:nonzero;stroke:none" />
      <path
         sodipodi:nodetypes="cscccccsccccccc"
         inkscape:connector-curvature="0"
         id="path3819"
         d="m -101.82969,608.40014 c 15.980456,-17.97674 16.414976,-2.30021 16.414976,-100.0051 0,-81.75489 2.36777,-82.29918 -11.11168,-93.69165 l 76.014,0 c -11.4788,9.30344 -2.1259,33.56717 4.0406,68.18529 7.0334996,-36.48179 15.1860996,-61.70108 5.3414,-68.18529 l 77.2596,0 c -16.491,12.25897 -11.5732,15.82863 -12.245,94.14929 -0.6751,78.70258 -8.7121,72.32187 17.5513,99.54746 l -63.2243004,0 C 22.322806,602.72451 11.876606,563.17307 14.229406,491.76272 l -28.5865,113.92535 -30.6515,-113.07667 c 0,66.4016 -4.2394,109.38207 7.8287,115.78874 z"
         style="fill:#b1a56e;fill-opacity:1;fill-rule:nonzero;stroke:none" />
      <path
         sodipodi:nodetypes="ccsccsc"
         inkscape:connector-curvature="0"
         id="path3824"
         d="m 72.850906,608.40014 60.546004,0 c -21.9421,-15.69588 -13.9497,-29.58355 -15.6267,-80.52891 -1.9251,-58.47868 -0.043,-61.75536 14.3009,-77.78725 l -62.225404,0 c 17.4776,15.69209 13.8757,43.60685 13.8558,77.78751 -0.022,38.12068 2.6929,60.21667 -10.8506,80.52865 z"
         style="fill:#b1a56e;fill-opacity:1;fill-rule:nonzero;stroke:none" />
      <path
         sodipodi:nodetypes="ccccccccccccccc"
         inkscape:connector-curvature="0"
         id="path3830"
         d="m 132.60141,608.40014 53.2982,0 c -15.1216,-11.32833 -8.0164,-26.10864 -10.1496,-94.28796 l 38.75,34.75 -0.014,42.5679 -8.7364,16.97006 47.5,0 c -13.7819,-14.73072 -10.0417,0 -10,-163.03796 l -42,32.25 c 4.6695,4.3563 9.4844,8.8216 13.25,12.5 l -0.25,16.75 c -35.0674,-38.58579 -54.79,-45.39915 -86.25,-53 l -6.25,22 c 5.4887,2.44813 11.3719,5.45987 18.5,10.25 0.3436,107.53796 2.5183,104.7751 -7.6486,122.28796 z"
         style="fill:#b1a56e;fill-opacity:1;fill-rule:nonzero;stroke:none" />
      <path
         sodipodi:nodetypes="ccccccccccccccccc"
         inkscape:connector-curvature="0"
         id="path3832"
         d="m 245.66971,487.93141 21.5921,7.70241 c -0.3999,83.80325 6.4,90.48554 -7.2605,112.76632 l 87.3782,0 0,-42.30818 c -8.39,9.38738 -20.3315,16.29399 -44.6993,14.52094 l 0,-36.11295 23.4861,0 7.071,6.31345 0,-30.05204 -30.5571,0 0,-31.94607 c 3.6272,-3.68131 7.4004,-6.92488 11.3642,-9.59645 l 17.6777,17.29886 15.5311,-10.48033 -33.5876,-46.59329 z"
         style="fill:#b1a56e;fill-opacity:1;fill-rule:nonzero;stroke:none" />
      <path
         style="fill:#b1a56e;fill-opacity:1;fill-rule:nonzero;stroke:none"
         d="m 629.79921,441.46264 -59.2188,34.09375 9.4688,11.875 c -16.1717,88.36032 -15.6606,108.45597 -29.125,120.96875 l 54.75,0 -15.5938,-15.59375 c 0.4795,-24.06386 24.0029,-32.4695 33.0313,-35.9375 1.955,11.10062 9.2526,35.7265 -4.2813,51.53125 l 53.0313,0 c -9.5019,-9.85088 -14.4405,-40.40385 -20.9738,-62.12881 6.6736,-2.19416 13.3574,-4.36795 20.1963,-6.2316 l -4.9457,-20.40298 c -6.4679,0.80697 -13.621,3.17508 -20.8668,5.28034 -8.262,-29.98659 -22.891,-63.91263 -15.4725,-83.45445 z m -22.9375,60.15625 c 3.8722,10.96202 9.1563,21.57104 11.3393,32.95536 -10.0137,4.40225 -14.1966,6.99063 -19.7456,11.16964 z"
         id="path3836"
         inkscape:connector-curvature="0"
         sodipodi:nodetypes="cccccccccccccccccc" />
      <path
         sodipodi:nodetypes="ccccccccccccccc"
         inkscape:connector-curvature="0"
         style="fill:#b1a56e;fill-opacity:1;fill-rule:nonzero;stroke:none"
         d="m 732.47231,436.54075 -71.7096,48.29286 c 3.1167,0.76235 14.4011,5.14522 23.1513,8.34778 1.2376,79.60986 8.0131,93.29286 -8.7296,115.21875 l 59.7346,0 c -17.2003,-14.89599 -15.1685,-28.69571 -14.8694,-64.28994 l 22.519,0 8.5087,8.50895 0,-33.17635 -31.3714,0 0,-31.62928 c 2.6142,-3.76418 7.223,-7.89832 12.1189,-12.11883 l 18.2054,22.29968 17.7056,-14.8692 z"
         id="path3838" />
      <path
         sodipodi:nodetypes="ccccccccccccc"
         inkscape:connector-curvature="0"
         id="path3840"
         d="m 392.75001,626.73718 -39.5,-43.75 0,-102.5 37.375,-39.75 42.5,43.125 -24.5,16.75 -11.875,-18 c -3.4289,2.14217 -5.6377,6.72458 -8.125,10.75 l 0,79.625 7.625,9.875 22.125,-23.875 11,35.25 z"
         style="fill:#b1a56e;fill-opacity:1;fill-rule:nonzero;stroke:none" />
      <path
         inkscape:connector-curvature="0"
         id="path3842"
         d="m 493.00001,441.75 -60.375,37.375 21.625,15.125 c -0.4889,114.16296 1.2738,93.39948 -13.875,114.15625 l 55.5,0 c -11.4656,-7.37506 -11.005,-22.93498 -11.25,-56.65625 l 16.75,13.625 c 0.0865,13.90381 -3.0215,31.75888 13.625,43.03125 l 34.375,0 c -17.4358,-16.07687 -13.7115,-39.54239 -13.5,-60.03125 l -21.5,-12.875 36.75,-30.875 -58.125,-62.875 z m -8.5,44 15.25,16.125 -15.25,17.40625 0,-33.53125 z"
         style="fill:#b1a56e;fill-opacity:1;fill-rule:nonzero;stroke:none" />
      <path
         sodipodi:nodetypes="ccccccccc"
         inkscape:connector-curvature="0"
         id="path3849"
         d="m 779.50001,608.40014 c 20.862,-24.35599 19.25,1.67858 19.25,-153.03796 -12.6749,1.73208 -25.36,3.433 -34.125,17.125 l 0,-57.78379 115.125,0 0,58.40879 c -10.0891,-9.54026 -22.2261,-16.53833 -39.125,-17.625 0,134.56313 -1.9111,127.08286 22.25,152.91296 z"
         style="fill:#b1a56e;fill-opacity:1;fill-rule:nonzero;stroke:none" />
    </g>
    <g
       id="g7688"
       style="fill:#f1f1dd;fill-opacity:1;filter:url(#filter7693)"
       clip-path="url(#clipPath7697)"
       inkscape:export-xdpi="22.475765"
       inkscape:export-ydpi="22.475765">
      <rect
         y="601.36218"
         x="73"
         height="17"
         width="968"
         id="rect7572"
         style="fill:#f1f1dd;fill-opacity:1;fill-rule:nonzero;stroke:none" />
      <g
         style="fill:#f1f1dd;fill-opacity:1"
         id="g7644">
        <rect
           style="fill:#f1f1dd;fill-opacity:1;fill-rule:nonzero;stroke:none"
           id="rect7642"
           width="968"
           height="19.5"
           x="73"
           y="721.36218" />
      </g>
    </g>
  </g>
</svg>
